<mxfile host="Electron" agent="Mozilla/5.0 (Windows NT 10.0; Win64; x64) AppleWebKit/537.36 (KHTML, like Gecko) draw.io/27.0.9 Chrome/134.0.6998.205 Electron/35.4.0 Safari/537.36" version="27.0.9">
  <diagram id="R2lEEEUBdFMjLlhIrx00" name="Page-1">
    <mxGraphModel dx="947" dy="1700" grid="1" gridSize="10" guides="1" tooltips="1" connect="1" arrows="1" fold="1" page="1" pageScale="1" pageWidth="850" pageHeight="1100" math="0" shadow="0" extFonts="Permanent Marker^https://fonts.googleapis.com/css?family=Permanent+Marker">
      <root>
        <mxCell id="0" />
        <mxCell id="1" parent="0" />
        <mxCell id="oZavl7u65jXDSUfrgbbG-7" value="" style="ellipse;whiteSpace=wrap;html=1;aspect=fixed;" parent="1" vertex="1">
          <mxGeometry as="geometry" />
        </mxCell>
        <mxCell id="oZavl7u65jXDSUfrgbbG-11" value="Responsabile" style="text;html=1;align=center;verticalAlign=middle;resizable=0;points=[];autosize=1;strokeColor=none;fillColor=none;" parent="1" vertex="1">
          <mxGeometry x="280" y="30" width="100" height="30" as="geometry" />
        </mxCell>
        <mxCell id="oZavl7u65jXDSUfrgbbG-15" value="" style="endArrow=none;html=1;rounded=0;entryX=0;entryY=0.5;entryDx=0;entryDy=0;" parent="1" edge="1">
          <mxGeometry width="50" height="50" relative="1" as="geometry">
            <mxPoint x="160" y="120" as="sourcePoint" />
            <mxPoint x="210" y="120" as="targetPoint" />
          </mxGeometry>
        </mxCell>
        <mxCell id="oZavl7u65jXDSUfrgbbG-16" value="Orari" style="text;html=1;align=center;verticalAlign=middle;whiteSpace=wrap;rounded=0;" parent="1" vertex="1">
          <mxGeometry x="110" y="105" width="50" height="25" as="geometry" />
        </mxCell>
        <mxCell id="oZavl7u65jXDSUfrgbbG-18" value="" style="endArrow=none;html=1;rounded=0;entryX=0;entryY=0;entryDx=0;entryDy=0;" parent="1" target="oZavl7u65jXDSUfrgbbG-16" edge="1">
          <mxGeometry width="50" height="50" relative="1" as="geometry">
            <mxPoint x="80" y="80" as="sourcePoint" />
            <mxPoint x="130" y="160" as="targetPoint" />
          </mxGeometry>
        </mxCell>
        <mxCell id="oZavl7u65jXDSUfrgbbG-19" value="" style="endArrow=none;html=1;rounded=0;entryX=0;entryY=1;entryDx=0;entryDy=0;" parent="1" target="oZavl7u65jXDSUfrgbbG-16" edge="1">
          <mxGeometry width="50" height="50" relative="1" as="geometry">
            <mxPoint x="80" y="160" as="sourcePoint" />
            <mxPoint x="170" y="120" as="targetPoint" />
          </mxGeometry>
        </mxCell>
        <mxCell id="oZavl7u65jXDSUfrgbbG-20" value="Orario apertura" style="text;html=1;align=center;verticalAlign=middle;whiteSpace=wrap;rounded=0;" parent="1" vertex="1">
          <mxGeometry x="20" y="60" width="60" height="30" as="geometry" />
        </mxCell>
        <mxCell id="oZavl7u65jXDSUfrgbbG-21" value="Orario chiusura" style="text;html=1;align=center;verticalAlign=middle;whiteSpace=wrap;rounded=0;" parent="1" vertex="1">
          <mxGeometry x="20" y="150" width="60" height="30" as="geometry" />
        </mxCell>
        <mxCell id="oZavl7u65jXDSUfrgbbG-22" value="Prodotto" style="rounded=0;whiteSpace=wrap;html=1;" parent="1" vertex="1">
          <mxGeometry x="440" y="240" width="120" height="60" as="geometry" />
        </mxCell>
        <mxCell id="oZavl7u65jXDSUfrgbbG-26" value="" style="endArrow=none;html=1;rounded=0;entryX=1;entryY=0;entryDx=0;entryDy=0;" parent="1" target="oZavl7u65jXDSUfrgbbG-22" edge="1">
          <mxGeometry width="50" height="50" relative="1" as="geometry">
            <mxPoint x="570" y="230" as="sourcePoint" />
            <mxPoint x="490" y="230" as="targetPoint" />
          </mxGeometry>
        </mxCell>
        <mxCell id="oZavl7u65jXDSUfrgbbG-27" value="" style="ellipse;whiteSpace=wrap;html=1;aspect=fixed;fillColor=#030000;" parent="1" vertex="1">
          <mxGeometry x="570" y="220" width="10" height="10" as="geometry" />
        </mxCell>
        <mxCell id="oZavl7u65jXDSUfrgbbG-28" value="&lt;span&gt;ID&lt;/span&gt;" style="text;html=1;align=center;verticalAlign=middle;resizable=0;points=[];autosize=1;strokeColor=none;fillColor=none;fontStyle=1" parent="1" vertex="1">
          <mxGeometry x="570" y="210" width="40" height="30" as="geometry" />
        </mxCell>
        <mxCell id="oZavl7u65jXDSUfrgbbG-29" value="" style="endArrow=none;html=1;rounded=0;" parent="1" edge="1">
          <mxGeometry width="50" height="50" relative="1" as="geometry">
            <mxPoint x="590" y="250" as="sourcePoint" />
            <mxPoint x="560" y="260" as="targetPoint" />
          </mxGeometry>
        </mxCell>
        <mxCell id="oZavl7u65jXDSUfrgbbG-30" value="Nome" style="text;html=1;align=center;verticalAlign=middle;resizable=0;points=[];autosize=1;strokeColor=none;fillColor=none;" parent="1" vertex="1">
          <mxGeometry x="580" y="230" width="60" height="30" as="geometry" />
        </mxCell>
        <mxCell id="oZavl7u65jXDSUfrgbbG-31" value="" style="endArrow=none;html=1;rounded=0;" parent="1" edge="1">
          <mxGeometry width="50" height="50" relative="1" as="geometry">
            <mxPoint x="560" y="280" as="sourcePoint" />
            <mxPoint x="590" y="270" as="targetPoint" />
          </mxGeometry>
        </mxCell>
        <mxCell id="oZavl7u65jXDSUfrgbbG-32" value="Descrizione" style="text;html=1;align=center;verticalAlign=middle;resizable=0;points=[];autosize=1;strokeColor=none;fillColor=none;" parent="1" vertex="1">
          <mxGeometry x="580" y="250" width="90" height="30" as="geometry" />
        </mxCell>
        <mxCell id="oZavl7u65jXDSUfrgbbG-46" value="Negozio" style="rounded=0;whiteSpace=wrap;html=1;snapToPoint=1;" parent="1" vertex="1">
          <mxGeometry x="210" y="80" width="150" height="80" as="geometry" />
        </mxCell>
        <mxCell id="oZavl7u65jXDSUfrgbbG-59" value="Cliente" style="rounded=0;whiteSpace=wrap;html=1;" parent="1" vertex="1">
          <mxGeometry x="70" y="430" width="120" height="60" as="geometry" />
        </mxCell>
        <mxCell id="oZavl7u65jXDSUfrgbbG-60" value="" style="endArrow=none;html=1;rounded=0;elbow=vertical;entryX=1;entryY=0;entryDx=0;entryDy=0;" parent="1" target="oZavl7u65jXDSUfrgbbG-59" edge="1">
          <mxGeometry width="50" height="50" relative="1" as="geometry">
            <mxPoint x="200" y="420" as="sourcePoint" />
            <mxPoint x="220" y="380" as="targetPoint" />
          </mxGeometry>
        </mxCell>
        <mxCell id="oZavl7u65jXDSUfrgbbG-61" value="" style="ellipse;whiteSpace=wrap;html=1;aspect=fixed;fillColor=#000000;" parent="1" vertex="1">
          <mxGeometry x="200" y="410" width="10" height="10" as="geometry" />
        </mxCell>
        <mxCell id="oZavl7u65jXDSUfrgbbG-62" value="Codice Fiscale" style="text;html=1;align=center;verticalAlign=middle;resizable=0;points=[];autosize=1;strokeColor=none;fillColor=none;fontStyle=1" parent="1" vertex="1">
          <mxGeometry x="205" y="400" width="100" height="30" as="geometry" />
        </mxCell>
        <mxCell id="oZavl7u65jXDSUfrgbbG-65" value="Nome" style="text;html=1;align=center;verticalAlign=middle;resizable=0;points=[];autosize=1;strokeColor=none;fillColor=none;" parent="1" vertex="1">
          <mxGeometry x="210" y="450" width="60" height="30" as="geometry" />
        </mxCell>
        <mxCell id="oZavl7u65jXDSUfrgbbG-66" value="Tessera" style="rounded=0;whiteSpace=wrap;html=1;" parent="1" vertex="1">
          <mxGeometry x="50" y="260" width="90" height="50" as="geometry" />
        </mxCell>
        <mxCell id="oZavl7u65jXDSUfrgbbG-67" value="" style="rhombus;whiteSpace=wrap;html=1;" parent="1" vertex="1">
          <mxGeometry x="100" y="180" width="40" height="40" as="geometry" />
        </mxCell>
        <mxCell id="oZavl7u65jXDSUfrgbbG-68" value="" style="endArrow=none;html=1;rounded=0;elbow=vertical;entryX=0.5;entryY=1;entryDx=0;entryDy=0;" parent="1" target="oZavl7u65jXDSUfrgbbG-67" edge="1">
          <mxGeometry width="50" height="50" relative="1" as="geometry">
            <mxPoint x="120" y="250" as="sourcePoint" />
            <mxPoint x="140" y="220" as="targetPoint" />
            <Array as="points">
              <mxPoint x="120" y="260" />
            </Array>
          </mxGeometry>
        </mxCell>
        <mxCell id="oZavl7u65jXDSUfrgbbG-69" value="" style="endArrow=none;html=1;rounded=0;elbow=vertical;" parent="1" edge="1">
          <mxGeometry width="50" height="50" relative="1" as="geometry">
            <mxPoint x="220" y="199.77" as="sourcePoint" />
            <mxPoint x="140" y="199.77" as="targetPoint" />
          </mxGeometry>
        </mxCell>
        <mxCell id="oZavl7u65jXDSUfrgbbG-73" value="" style="endArrow=none;html=1;rounded=0;elbow=vertical;entryX=0.067;entryY=1;entryDx=0;entryDy=0;entryPerimeter=0;" parent="1" target="oZavl7u65jXDSUfrgbbG-46" edge="1">
          <mxGeometry width="50" height="50" relative="1" as="geometry">
            <mxPoint x="220" y="200" as="sourcePoint" />
            <mxPoint x="220" y="190" as="targetPoint" />
          </mxGeometry>
        </mxCell>
        <mxCell id="oZavl7u65jXDSUfrgbbG-74" value="rilascia" style="text;html=1;align=center;verticalAlign=middle;whiteSpace=wrap;rounded=0;" parent="1" vertex="1">
          <mxGeometry x="130" y="170" width="60" height="30" as="geometry" />
        </mxCell>
        <mxCell id="oZavl7u65jXDSUfrgbbG-75" value="rilasciata da" style="text;html=1;align=center;verticalAlign=middle;resizable=0;points=[];autosize=1;strokeColor=none;fillColor=none;" parent="1" vertex="1">
          <mxGeometry x="115" y="210" width="90" height="30" as="geometry" />
        </mxCell>
        <mxCell id="oZavl7u65jXDSUfrgbbG-76" value="&lt;span style=&quot;color: rgb(0, 0, 0); font-family: Helvetica; font-size: 12px; font-style: normal; font-variant-ligatures: normal; font-variant-caps: normal; font-weight: 400; letter-spacing: normal; orphans: 2; text-align: center; text-indent: 0px; text-transform: none; widows: 2; word-spacing: 0px; -webkit-text-stroke-width: 0px; white-space: normal; background-color: rgb(251, 251, 251); text-decoration-thickness: initial; text-decoration-style: initial; text-decoration-color: initial; display: inline !important; float: none;&quot;&gt;(0, N)&lt;/span&gt;" style="text;whiteSpace=wrap;html=1;" parent="1" vertex="1">
          <mxGeometry x="220" y="160" width="60" height="40" as="geometry" />
        </mxCell>
        <mxCell id="oZavl7u65jXDSUfrgbbG-77" value="&lt;span style=&quot;color: rgb(0, 0, 0); font-family: Helvetica; font-size: 12px; font-style: normal; font-variant-ligatures: normal; font-variant-caps: normal; font-weight: 400; letter-spacing: normal; orphans: 2; text-align: center; text-indent: 0px; text-transform: none; widows: 2; word-spacing: 0px; -webkit-text-stroke-width: 0px; white-space: normal; background-color: rgb(251, 251, 251); text-decoration-thickness: initial; text-decoration-style: initial; text-decoration-color: initial; display: inline !important; float: none;&quot;&gt;(1, 1)&lt;/span&gt;" style="text;whiteSpace=wrap;html=1;" parent="1" vertex="1">
          <mxGeometry x="120" y="235" width="60" height="40" as="geometry" />
        </mxCell>
        <mxCell id="oZavl7u65jXDSUfrgbbG-78" value="" style="rhombus;whiteSpace=wrap;html=1;" parent="1" vertex="1">
          <mxGeometry x="10" y="350" width="40" height="40" as="geometry" />
        </mxCell>
        <mxCell id="oZavl7u65jXDSUfrgbbG-80" value="" style="endArrow=none;html=1;rounded=0;elbow=vertical;" parent="1" edge="1">
          <mxGeometry width="50" height="50" relative="1" as="geometry">
            <mxPoint x="29.86" y="350" as="sourcePoint" />
            <mxPoint x="30.049999999999997" y="310" as="targetPoint" />
          </mxGeometry>
        </mxCell>
        <mxCell id="oZavl7u65jXDSUfrgbbG-82" value="" style="endArrow=none;html=1;rounded=0;elbow=vertical;" parent="1" edge="1">
          <mxGeometry width="50" height="50" relative="1" as="geometry">
            <mxPoint x="190" y="480" as="sourcePoint" />
            <mxPoint x="220" y="470" as="targetPoint" />
          </mxGeometry>
        </mxCell>
        <mxCell id="oZavl7u65jXDSUfrgbbG-83" value="" style="endArrow=none;html=1;rounded=0;elbow=vertical;" parent="1" edge="1">
          <mxGeometry width="50" height="50" relative="1" as="geometry">
            <mxPoint x="30" y="440" as="sourcePoint" />
            <mxPoint x="29.89" y="390" as="targetPoint" />
          </mxGeometry>
        </mxCell>
        <mxCell id="oZavl7u65jXDSUfrgbbG-84" value="possiede" style="text;html=1;align=center;verticalAlign=middle;whiteSpace=wrap;rounded=0;" parent="1" vertex="1">
          <mxGeometry x="40" y="380" width="60" height="30" as="geometry" />
        </mxCell>
        <mxCell id="oZavl7u65jXDSUfrgbbG-85" value="appartiene a" style="text;html=1;align=center;verticalAlign=middle;whiteSpace=wrap;rounded=0;" parent="1" vertex="1">
          <mxGeometry x="40" y="320" width="70" height="30" as="geometry" />
        </mxCell>
        <mxCell id="oZavl7u65jXDSUfrgbbG-86" value="(0, 1)" style="text;html=1;align=center;verticalAlign=middle;whiteSpace=wrap;rounded=0;" parent="1" vertex="1">
          <mxGeometry x="20" y="440" width="60" height="30" as="geometry" />
        </mxCell>
        <mxCell id="oZavl7u65jXDSUfrgbbG-87" value="(1, 1)" style="text;html=1;align=center;verticalAlign=middle;whiteSpace=wrap;rounded=0;" parent="1" vertex="1">
          <mxGeometry y="255" width="60" height="30" as="geometry" />
        </mxCell>
        <mxCell id="oZavl7u65jXDSUfrgbbG-89" value="" style="endArrow=none;html=1;rounded=0;elbow=vertical;" parent="1" edge="1">
          <mxGeometry width="50" height="50" relative="1" as="geometry">
            <mxPoint x="30" y="280" as="sourcePoint" />
            <mxPoint x="50" y="280" as="targetPoint" />
          </mxGeometry>
        </mxCell>
        <mxCell id="oZavl7u65jXDSUfrgbbG-90" value="" style="endArrow=none;html=1;rounded=0;elbow=vertical;" parent="1" edge="1">
          <mxGeometry width="50" height="50" relative="1" as="geometry">
            <mxPoint x="30" y="280" as="sourcePoint" />
            <mxPoint x="30" y="310" as="targetPoint" />
          </mxGeometry>
        </mxCell>
        <mxCell id="oZavl7u65jXDSUfrgbbG-91" value="" style="endArrow=none;html=1;rounded=0;elbow=vertical;" parent="1" edge="1">
          <mxGeometry width="50" height="50" relative="1" as="geometry">
            <mxPoint x="30" y="440" as="sourcePoint" />
            <mxPoint x="70" y="440" as="targetPoint" />
          </mxGeometry>
        </mxCell>
        <mxCell id="oZavl7u65jXDSUfrgbbG-92" value="" style="endArrow=none;html=1;rounded=0;elbow=vertical;" parent="1" edge="1">
          <mxGeometry width="50" height="50" relative="1" as="geometry">
            <mxPoint x="20" y="290" as="sourcePoint" />
            <mxPoint x="50" y="290" as="targetPoint" />
            <Array as="points" />
          </mxGeometry>
        </mxCell>
        <mxCell id="oZavl7u65jXDSUfrgbbG-93" value="" style="ellipse;whiteSpace=wrap;html=1;aspect=fixed;fillColor=#000000;" parent="1" vertex="1">
          <mxGeometry x="10" y="285" width="10" height="10" as="geometry" />
        </mxCell>
        <mxCell id="oZavl7u65jXDSUfrgbbG-94" value="" style="endArrow=none;html=1;rounded=0;elbow=vertical;" parent="1" edge="1">
          <mxGeometry width="50" height="50" relative="1" as="geometry">
            <mxPoint x="140" y="280" as="sourcePoint" />
            <mxPoint x="170" y="270" as="targetPoint" />
          </mxGeometry>
        </mxCell>
        <mxCell id="oZavl7u65jXDSUfrgbbG-95" value="data di richiesta" style="text;html=1;align=center;verticalAlign=middle;whiteSpace=wrap;rounded=0;" parent="1" vertex="1">
          <mxGeometry x="170" y="250" width="90" height="30" as="geometry" />
        </mxCell>
        <mxCell id="oZavl7u65jXDSUfrgbbG-96" value="" style="endArrow=none;html=1;rounded=0;elbow=vertical;" parent="1" edge="1">
          <mxGeometry width="50" height="50" relative="1" as="geometry">
            <mxPoint x="140" y="295" as="sourcePoint" />
            <mxPoint x="170" y="285" as="targetPoint" />
          </mxGeometry>
        </mxCell>
        <mxCell id="oZavl7u65jXDSUfrgbbG-97" value="saldo punti" style="text;html=1;align=center;verticalAlign=middle;whiteSpace=wrap;rounded=0;" parent="1" vertex="1">
          <mxGeometry x="160" y="265" width="90" height="30" as="geometry" />
        </mxCell>
        <mxCell id="9qisJqf6CXYM0_tI4CNQ-1" value="Fornitore" style="rounded=0;whiteSpace=wrap;html=1;" parent="1" vertex="1">
          <mxGeometry x="565" y="30" width="120" height="60" as="geometry" />
        </mxCell>
        <mxCell id="9qisJqf6CXYM0_tI4CNQ-7" value="è disponibile presso" style="text;html=1;align=center;verticalAlign=middle;whiteSpace=wrap;rounded=0;" parent="1" vertex="1">
          <mxGeometry x="757.5" y="185" width="85" height="30" as="geometry" />
        </mxCell>
        <mxCell id="9qisJqf6CXYM0_tI4CNQ-8" value="può fornire" style="text;html=1;align=center;verticalAlign=middle;whiteSpace=wrap;rounded=0;" parent="1" vertex="1">
          <mxGeometry x="770" y="110" width="60" height="30" as="geometry" />
        </mxCell>
        <mxCell id="9qisJqf6CXYM0_tI4CNQ-13" value="prezzo" style="text;html=1;align=center;verticalAlign=middle;resizable=0;points=[];autosize=1;strokeColor=none;fillColor=none;" parent="1" vertex="1">
          <mxGeometry x="880" y="170" width="60" height="30" as="geometry" />
        </mxCell>
        <mxCell id="9qisJqf6CXYM0_tI4CNQ-15" value="quantità" style="text;html=1;align=center;verticalAlign=middle;whiteSpace=wrap;rounded=0;" parent="1" vertex="1">
          <mxGeometry x="880" y="115" width="60" height="30" as="geometry" />
        </mxCell>
        <mxCell id="9qisJqf6CXYM0_tI4CNQ-23" value="Indirizzo" style="text;html=1;align=center;verticalAlign=middle;resizable=0;points=[];autosize=1;strokeColor=none;fillColor=none;" parent="1" vertex="1">
          <mxGeometry x="565" y="-190" width="70" height="30" as="geometry" />
        </mxCell>
        <mxCell id="9qisJqf6CXYM0_tI4CNQ-24" value="Punto Deposito" style="rounded=0;whiteSpace=wrap;html=1;" parent="1" vertex="1">
          <mxGeometry x="380" y="-180" width="140" height="70" as="geometry" />
        </mxCell>
        <mxCell id="9qisJqf6CXYM0_tI4CNQ-25" value="" style="endArrow=none;html=1;rounded=0;" parent="1" edge="1">
          <mxGeometry width="50" height="50" relative="1" as="geometry">
            <mxPoint x="520" y="-180" as="sourcePoint" />
            <mxPoint x="540" y="-200" as="targetPoint" />
          </mxGeometry>
        </mxCell>
        <mxCell id="9qisJqf6CXYM0_tI4CNQ-26" value="" style="ellipse;whiteSpace=wrap;html=1;aspect=fixed;fillColor=#000000;" parent="1" vertex="1">
          <mxGeometry x="540" y="-210" width="10" height="10" as="geometry" />
        </mxCell>
        <mxCell id="9qisJqf6CXYM0_tI4CNQ-29" value="" style="endArrow=none;html=1;rounded=0;" parent="1" edge="1">
          <mxGeometry width="50" height="50" relative="1" as="geometry">
            <mxPoint x="450" y="-40" as="sourcePoint" />
            <mxPoint x="450" y="-110" as="targetPoint" />
          </mxGeometry>
        </mxCell>
        <mxCell id="9qisJqf6CXYM0_tI4CNQ-30" value="" style="endArrow=none;html=1;rounded=0;" parent="1" edge="1">
          <mxGeometry width="50" height="50" relative="1" as="geometry">
            <mxPoint x="260" y="-40" as="sourcePoint" />
            <mxPoint x="620" y="-40" as="targetPoint" />
          </mxGeometry>
        </mxCell>
        <mxCell id="9qisJqf6CXYM0_tI4CNQ-32" value="" style="endArrow=classic;html=1;rounded=0;entryX=0.333;entryY=0;entryDx=0;entryDy=0;entryPerimeter=0;" parent="1" target="oZavl7u65jXDSUfrgbbG-46" edge="1">
          <mxGeometry width="50" height="50" relative="1" as="geometry">
            <mxPoint x="260" y="-40" as="sourcePoint" />
            <mxPoint x="470" y="-60" as="targetPoint" />
          </mxGeometry>
        </mxCell>
        <mxCell id="9qisJqf6CXYM0_tI4CNQ-33" value="" style="endArrow=classic;html=1;rounded=0;entryX=0.46;entryY=-0.006;entryDx=0;entryDy=0;entryPerimeter=0;" parent="1" target="9qisJqf6CXYM0_tI4CNQ-1" edge="1">
          <mxGeometry width="50" height="50" relative="1" as="geometry">
            <mxPoint x="620" y="-40" as="sourcePoint" />
            <mxPoint x="640" y="-10" as="targetPoint" />
          </mxGeometry>
        </mxCell>
        <mxCell id="9qisJqf6CXYM0_tI4CNQ-34" value="" style="endArrow=none;html=1;rounded=0;entryX=0.999;entryY=0.407;entryDx=0;entryDy=0;entryPerimeter=0;exitX=-0.013;exitY=0.667;exitDx=0;exitDy=0;exitPerimeter=0;" parent="1" source="9qisJqf6CXYM0_tI4CNQ-23" target="9qisJqf6CXYM0_tI4CNQ-24" edge="1">
          <mxGeometry width="50" height="50" relative="1" as="geometry">
            <mxPoint x="500" y="40" as="sourcePoint" />
            <mxPoint x="550" y="-10" as="targetPoint" />
          </mxGeometry>
        </mxCell>
        <mxCell id="jTJZyVXGOSGdadM1OaJc-1" value="" style="endArrow=none;html=1;rounded=0;exitX=1;exitY=0.5;exitDx=0;exitDy=0;" parent="1" edge="1">
          <mxGeometry width="50" height="50" relative="1" as="geometry">
            <mxPoint x="685" y="60" as="sourcePoint" />
            <mxPoint x="715" y="50" as="targetPoint" />
          </mxGeometry>
        </mxCell>
        <mxCell id="jTJZyVXGOSGdadM1OaJc-2" value="P.IVA" style="text;html=1;align=center;verticalAlign=middle;resizable=0;points=[];autosize=1;strokeColor=none;fillColor=none;" parent="1" vertex="1">
          <mxGeometry x="710" y="30" width="50" height="30" as="geometry" />
        </mxCell>
        <mxCell id="mbd7B6UDu0PyMPiPhFEF-5" value="" style="endArrow=none;html=1;rounded=0;" parent="1" edge="1">
          <mxGeometry width="50" height="50" relative="1" as="geometry">
            <mxPoint x="850" y="170" as="sourcePoint" />
            <mxPoint x="880" y="180" as="targetPoint" />
          </mxGeometry>
        </mxCell>
        <mxCell id="mbd7B6UDu0PyMPiPhFEF-13" value="" style="endArrow=none;html=1;rounded=0;" parent="1" edge="1">
          <mxGeometry width="50" height="50" relative="1" as="geometry">
            <mxPoint x="600" y="290" as="sourcePoint" />
            <mxPoint x="680" y="290" as="targetPoint" />
          </mxGeometry>
        </mxCell>
        <mxCell id="mbd7B6UDu0PyMPiPhFEF-14" value="" style="endArrow=none;html=1;rounded=0;" parent="1" edge="1">
          <mxGeometry width="50" height="50" relative="1" as="geometry">
            <mxPoint x="560" y="289.8" as="sourcePoint" />
            <mxPoint x="600" y="289.8" as="targetPoint" />
          </mxGeometry>
        </mxCell>
        <mxCell id="mbd7B6UDu0PyMPiPhFEF-16" value="(0, N)" style="text;html=1;align=center;verticalAlign=middle;whiteSpace=wrap;rounded=0;" parent="1" vertex="1">
          <mxGeometry x="560" y="290" width="60" height="30" as="geometry" />
        </mxCell>
        <mxCell id="mbd7B6UDu0PyMPiPhFEF-17" value="" style="endArrow=none;html=1;rounded=0;" parent="1" edge="1">
          <mxGeometry width="50" height="50" relative="1" as="geometry">
            <mxPoint x="330" y="80" as="sourcePoint" />
            <mxPoint x="330" y="60" as="targetPoint" />
          </mxGeometry>
        </mxCell>
        <mxCell id="mbd7B6UDu0PyMPiPhFEF-18" value="Ordine" style="rounded=0;whiteSpace=wrap;html=1;" parent="1" vertex="1">
          <mxGeometry x="422.5" y="45" width="67.5" height="30" as="geometry" />
        </mxCell>
        <mxCell id="mbd7B6UDu0PyMPiPhFEF-19" value="" style="rhombus;whiteSpace=wrap;html=1;" parent="1" vertex="1">
          <mxGeometry x="520" y="50" width="20" height="20" as="geometry" />
        </mxCell>
        <mxCell id="mbd7B6UDu0PyMPiPhFEF-20" value="" style="rhombus;whiteSpace=wrap;html=1;" parent="1" vertex="1">
          <mxGeometry x="390" y="110" width="20" height="20" as="geometry" />
        </mxCell>
        <mxCell id="mbd7B6UDu0PyMPiPhFEF-21" value="" style="rhombus;whiteSpace=wrap;html=1;" parent="1" vertex="1">
          <mxGeometry x="460" y="150" width="20" height="20" as="geometry" />
        </mxCell>
        <mxCell id="mbd7B6UDu0PyMPiPhFEF-23" value="" style="endArrow=none;html=1;rounded=0;entryX=0;entryY=0.5;entryDx=0;entryDy=0;" parent="1" target="9qisJqf6CXYM0_tI4CNQ-1" edge="1">
          <mxGeometry width="50" height="50" relative="1" as="geometry">
            <mxPoint x="540" y="60" as="sourcePoint" />
            <mxPoint x="560" y="60" as="targetPoint" />
          </mxGeometry>
        </mxCell>
        <mxCell id="mbd7B6UDu0PyMPiPhFEF-24" value="" style="endArrow=none;html=1;rounded=0;exitX=0.5;exitY=0;exitDx=0;exitDy=0;" parent="1" source="mbd7B6UDu0PyMPiPhFEF-21" edge="1">
          <mxGeometry width="50" height="50" relative="1" as="geometry">
            <mxPoint x="470" y="105" as="sourcePoint" />
            <mxPoint x="470" y="75" as="targetPoint" />
          </mxGeometry>
        </mxCell>
        <mxCell id="mbd7B6UDu0PyMPiPhFEF-26" value="" style="endArrow=none;html=1;rounded=0;exitX=0;exitY=1;exitDx=0;exitDy=0;" parent="1" edge="1">
          <mxGeometry width="50" height="50" relative="1" as="geometry">
            <mxPoint x="470" y="240" as="sourcePoint" />
            <mxPoint x="469.81" y="170" as="targetPoint" />
          </mxGeometry>
        </mxCell>
        <mxCell id="mbd7B6UDu0PyMPiPhFEF-27" value="" style="endArrow=none;html=1;rounded=0;" parent="1" edge="1">
          <mxGeometry width="50" height="50" relative="1" as="geometry">
            <mxPoint x="430" y="120" as="sourcePoint" />
            <mxPoint x="430" y="75" as="targetPoint" />
          </mxGeometry>
        </mxCell>
        <mxCell id="mbd7B6UDu0PyMPiPhFEF-28" value="" style="endArrow=none;html=1;rounded=0;" parent="1" edge="1">
          <mxGeometry width="50" height="50" relative="1" as="geometry">
            <mxPoint x="430" y="120" as="sourcePoint" />
            <mxPoint x="410" y="120" as="targetPoint" />
          </mxGeometry>
        </mxCell>
        <mxCell id="mbd7B6UDu0PyMPiPhFEF-29" value="" style="endArrow=none;html=1;rounded=0;entryX=1;entryY=0.5;entryDx=0;entryDy=0;" parent="1" target="oZavl7u65jXDSUfrgbbG-46" edge="1">
          <mxGeometry width="50" height="50" relative="1" as="geometry">
            <mxPoint x="390" y="119.8" as="sourcePoint" />
            <mxPoint x="370" y="119.8" as="targetPoint" />
            <Array as="points">
              <mxPoint x="380" y="119.8" />
            </Array>
          </mxGeometry>
        </mxCell>
        <mxCell id="mbd7B6UDu0PyMPiPhFEF-30" value="(1, N)" style="text;html=1;align=center;verticalAlign=middle;whiteSpace=wrap;rounded=0;" parent="1" vertex="1">
          <mxGeometry x="460" y="80" width="60" height="30" as="geometry" />
        </mxCell>
        <mxCell id="mbd7B6UDu0PyMPiPhFEF-31" value="cont&lt;span style=&quot;color: rgba(0, 0, 0, 0); font-family: monospace; font-size: 0px; text-align: start; text-wrap-mode: nowrap;&quot;&gt;%3CmxGraphModel%3E%3Croot%3E%3CmxCell%20id%3D%220%22%2F%3E%3CmxCell%20id%3D%221%22%20parent%3D%220%22%2F%3E%3CmxCell%20id%3D%222%22%20value%3D%22fornisce%22%20style%3D%22text%3Bhtml%3D1%3Balign%3Dcenter%3BverticalAlign%3Dmiddle%3BwhiteSpace%3Dwrap%3Brounded%3D0%3B%22%20vertex%3D%221%22%20parent%3D%221%22%3E%3CmxGeometry%20x%3D%22565%22%20y%3D%22110%22%20width%3D%2260%22%20height%3D%2230%22%20as%3D%22geometry%22%2F%3E%3C%2FmxCell%3E%3C%2Froot%3E%3C%2FmxGraphModel%3E&lt;/span&gt;iene" style="text;html=1;align=center;verticalAlign=middle;whiteSpace=wrap;rounded=0;" parent="1" vertex="1">
          <mxGeometry x="475" y="130" width="50" height="20" as="geometry" />
        </mxCell>
        <mxCell id="mbd7B6UDu0PyMPiPhFEF-32" value="è contenuto in" style="text;html=1;align=center;verticalAlign=middle;whiteSpace=wrap;rounded=0;" parent="1" vertex="1">
          <mxGeometry x="385" y="175" width="85" height="20" as="geometry" />
        </mxCell>
        <mxCell id="mbd7B6UDu0PyMPiPhFEF-33" value="(0, N)" style="text;html=1;align=center;verticalAlign=middle;whiteSpace=wrap;rounded=0;" parent="1" vertex="1">
          <mxGeometry x="460" y="210" width="60" height="30" as="geometry" />
        </mxCell>
        <mxCell id="mbd7B6UDu0PyMPiPhFEF-34" value="invia" style="text;html=1;align=center;verticalAlign=middle;whiteSpace=wrap;rounded=0;rotation=90;" parent="1" vertex="1">
          <mxGeometry x="515" y="30" width="50" height="20" as="geometry" />
        </mxCell>
        <mxCell id="mbd7B6UDu0PyMPiPhFEF-36" value="è inviato da" style="text;html=1;align=center;verticalAlign=middle;whiteSpace=wrap;rounded=0;rotation=90;" parent="1" vertex="1">
          <mxGeometry x="480" y="10" width="72.5" height="20" as="geometry" />
        </mxCell>
        <mxCell id="mbd7B6UDu0PyMPiPhFEF-38" value="effettua" style="text;html=1;align=center;verticalAlign=middle;whiteSpace=wrap;rounded=0;rotation=90;" parent="1" vertex="1">
          <mxGeometry x="350" y="85" width="72.5" height="20" as="geometry" />
        </mxCell>
        <mxCell id="mbd7B6UDu0PyMPiPhFEF-39" value="è effettuato da" style="text;html=1;align=center;verticalAlign=middle;whiteSpace=wrap;rounded=0;rotation=90;" parent="1" vertex="1">
          <mxGeometry x="370" y="70" width="90" height="20" as="geometry" />
        </mxCell>
        <mxCell id="mbd7B6UDu0PyMPiPhFEF-41" value="" style="endArrow=none;html=1;rounded=0;" parent="1" edge="1">
          <mxGeometry width="50" height="50" relative="1" as="geometry">
            <mxPoint x="490" y="59.629999999999995" as="sourcePoint" />
            <mxPoint x="520" y="59.629999999999995" as="targetPoint" />
          </mxGeometry>
        </mxCell>
        <mxCell id="mbd7B6UDu0PyMPiPhFEF-42" value="(1, 1)" style="text;html=1;align=center;verticalAlign=middle;whiteSpace=wrap;rounded=0;rotation=90;" parent="1" vertex="1">
          <mxGeometry x="470" y="25" width="60" height="30" as="geometry" />
        </mxCell>
        <mxCell id="mbd7B6UDu0PyMPiPhFEF-43" value="(0, N)" style="text;html=1;align=center;verticalAlign=middle;whiteSpace=wrap;rounded=0;rotation=90;" parent="1" vertex="1">
          <mxGeometry x="525" y="60" width="60" height="30" as="geometry" />
        </mxCell>
        <mxCell id="mbd7B6UDu0PyMPiPhFEF-44" value="(1, 1)" style="text;html=1;align=center;verticalAlign=middle;whiteSpace=wrap;rounded=0;rotation=0;" parent="1" vertex="1">
          <mxGeometry x="415" y="70" width="60" height="30" as="geometry" />
        </mxCell>
        <mxCell id="mbd7B6UDu0PyMPiPhFEF-45" value="(0, N)" style="text;html=1;align=center;verticalAlign=middle;whiteSpace=wrap;rounded=0;rotation=90;" parent="1" vertex="1">
          <mxGeometry x="340" y="125" width="60" height="30" as="geometry" />
        </mxCell>
        <mxCell id="mbd7B6UDu0PyMPiPhFEF-47" value="" style="endArrow=none;html=1;rounded=0;" parent="1" edge="1">
          <mxGeometry width="50" height="50" relative="1" as="geometry">
            <mxPoint x="430" y="45" as="sourcePoint" />
            <mxPoint x="410" y="25" as="targetPoint" />
            <Array as="points">
              <mxPoint x="420" y="35" />
            </Array>
          </mxGeometry>
        </mxCell>
        <mxCell id="mbd7B6UDu0PyMPiPhFEF-48" value="" style="ellipse;whiteSpace=wrap;html=1;aspect=fixed;direction=south;fillColor=#000000;" parent="1" vertex="1">
          <mxGeometry x="400" y="15" width="10" height="10" as="geometry" />
        </mxCell>
        <mxCell id="mbd7B6UDu0PyMPiPhFEF-55" value="" style="endArrow=none;html=1;rounded=0;" parent="1" edge="1">
          <mxGeometry width="50" height="50" relative="1" as="geometry">
            <mxPoint x="450" y="45" as="sourcePoint" />
            <mxPoint x="410" as="targetPoint" />
          </mxGeometry>
        </mxCell>
        <mxCell id="mbd7B6UDu0PyMPiPhFEF-57" value="Data consegna" style="text;html=1;align=center;verticalAlign=middle;whiteSpace=wrap;rounded=0;" parent="1" vertex="1">
          <mxGeometry x="325" y="-10" width="85" height="10" as="geometry" />
        </mxCell>
        <mxCell id="mbd7B6UDu0PyMPiPhFEF-60" value="quantità" style="text;html=1;align=center;verticalAlign=middle;whiteSpace=wrap;rounded=0;" parent="1" vertex="1">
          <mxGeometry x="495" y="155" width="45" height="30" as="geometry" />
        </mxCell>
        <mxCell id="mbd7B6UDu0PyMPiPhFEF-61" value="" style="endArrow=none;html=1;rounded=0;entryX=1;entryY=1;entryDx=0;entryDy=0;" parent="1" target="mbd7B6UDu0PyMPiPhFEF-21" edge="1">
          <mxGeometry width="50" height="50" relative="1" as="geometry">
            <mxPoint x="490" y="170" as="sourcePoint" />
            <mxPoint x="570" y="130" as="targetPoint" />
          </mxGeometry>
        </mxCell>
        <mxCell id="mbd7B6UDu0PyMPiPhFEF-62" value="Fattura" style="rounded=0;whiteSpace=wrap;html=1;" parent="1" vertex="1">
          <mxGeometry x="440" y="430" width="120" height="60" as="geometry" />
        </mxCell>
        <mxCell id="mbd7B6UDu0PyMPiPhFEF-63" value="" style="endArrow=none;html=1;rounded=0;" parent="1" edge="1">
          <mxGeometry width="50" height="50" relative="1" as="geometry">
            <mxPoint x="119.09" y="540" as="sourcePoint" />
            <mxPoint x="119.09" y="490" as="targetPoint" />
          </mxGeometry>
        </mxCell>
        <mxCell id="mbd7B6UDu0PyMPiPhFEF-64" value="" style="endArrow=none;html=1;rounded=0;" parent="1" edge="1">
          <mxGeometry width="50" height="50" relative="1" as="geometry">
            <mxPoint x="120" y="540" as="sourcePoint" />
            <mxPoint x="280" y="540" as="targetPoint" />
          </mxGeometry>
        </mxCell>
        <mxCell id="mbd7B6UDu0PyMPiPhFEF-65" value="" style="rhombus;whiteSpace=wrap;html=1;" parent="1" vertex="1">
          <mxGeometry x="280" y="520" width="40" height="40" as="geometry" />
        </mxCell>
        <mxCell id="mbd7B6UDu0PyMPiPhFEF-66" value="" style="endArrow=none;html=1;rounded=0;" parent="1" edge="1">
          <mxGeometry width="50" height="50" relative="1" as="geometry">
            <mxPoint x="320" y="539.8" as="sourcePoint" />
            <mxPoint x="505" y="539.8" as="targetPoint" />
          </mxGeometry>
        </mxCell>
        <mxCell id="mbd7B6UDu0PyMPiPhFEF-67" value="" style="endArrow=none;html=1;rounded=0;" parent="1" edge="1">
          <mxGeometry width="50" height="50" relative="1" as="geometry">
            <mxPoint x="504.8" y="540" as="sourcePoint" />
            <mxPoint x="504.8" y="490" as="targetPoint" />
          </mxGeometry>
        </mxCell>
        <mxCell id="mbd7B6UDu0PyMPiPhFEF-69" value="è associato a" style="text;html=1;align=center;verticalAlign=middle;whiteSpace=wrap;rounded=0;" parent="1" vertex="1">
          <mxGeometry x="190" y="550" width="85" height="20" as="geometry" />
        </mxCell>
        <mxCell id="mbd7B6UDu0PyMPiPhFEF-70" value="è associata a" style="text;html=1;align=center;verticalAlign=middle;whiteSpace=wrap;rounded=0;" parent="1" vertex="1">
          <mxGeometry x="330" y="550" width="85" height="20" as="geometry" />
        </mxCell>
        <mxCell id="mbd7B6UDu0PyMPiPhFEF-71" value="" style="rhombus;whiteSpace=wrap;html=1;" parent="1" vertex="1">
          <mxGeometry x="485" y="350" width="40" height="40" as="geometry" />
        </mxCell>
        <mxCell id="mbd7B6UDu0PyMPiPhFEF-72" value="" style="endArrow=none;html=1;rounded=0;" parent="1" edge="1">
          <mxGeometry width="50" height="50" relative="1" as="geometry">
            <mxPoint x="504.55" y="350" as="sourcePoint" />
            <mxPoint x="504.55" y="300" as="targetPoint" />
          </mxGeometry>
        </mxCell>
        <mxCell id="mbd7B6UDu0PyMPiPhFEF-73" value="" style="endArrow=none;html=1;rounded=0;" parent="1" edge="1">
          <mxGeometry width="50" height="50" relative="1" as="geometry">
            <mxPoint x="504.78" y="430" as="sourcePoint" />
            <mxPoint x="504.87" y="390" as="targetPoint" />
          </mxGeometry>
        </mxCell>
        <mxCell id="mbd7B6UDu0PyMPiPhFEF-74" value="(0, N)" style="text;html=1;align=center;verticalAlign=middle;whiteSpace=wrap;rounded=0;" parent="1" vertex="1">
          <mxGeometry x="110" y="490" width="60" height="30" as="geometry" />
        </mxCell>
        <mxCell id="mbd7B6UDu0PyMPiPhFEF-75" value="&lt;span style=&quot;color: rgb(0, 0, 0); font-family: Helvetica; font-size: 12px; font-style: normal; font-variant-ligatures: normal; font-variant-caps: normal; font-weight: 400; letter-spacing: normal; orphans: 2; text-align: center; text-indent: 0px; text-transform: none; widows: 2; word-spacing: 0px; -webkit-text-stroke-width: 0px; white-space: normal; background-color: rgb(251, 251, 251); text-decoration-thickness: initial; text-decoration-style: initial; text-decoration-color: initial; display: inline !important; float: none;&quot;&gt;(1, 1)&lt;/span&gt;" style="text;whiteSpace=wrap;html=1;" parent="1" vertex="1">
          <mxGeometry x="465" y="490" width="60" height="40" as="geometry" />
        </mxCell>
        <mxCell id="mbd7B6UDu0PyMPiPhFEF-76" value="è relativa a" style="text;html=1;align=center;verticalAlign=middle;whiteSpace=wrap;rounded=0;" parent="1" vertex="1">
          <mxGeometry x="512.5" y="385" width="85" height="20" as="geometry" />
        </mxCell>
        <mxCell id="mbd7B6UDu0PyMPiPhFEF-77" value="è associato a" style="text;html=1;align=center;verticalAlign=middle;whiteSpace=wrap;rounded=0;" parent="1" vertex="1">
          <mxGeometry x="512.5" y="330" width="85" height="20" as="geometry" />
        </mxCell>
        <mxCell id="mbd7B6UDu0PyMPiPhFEF-78" value="&lt;span style=&quot;color: rgb(0, 0, 0); font-family: Helvetica; font-size: 12px; font-style: normal; font-variant-ligatures: normal; font-variant-caps: normal; font-weight: 400; letter-spacing: normal; orphans: 2; text-align: center; text-indent: 0px; text-transform: none; widows: 2; word-spacing: 0px; -webkit-text-stroke-width: 0px; white-space: normal; background-color: rgb(251, 251, 251); text-decoration-thickness: initial; text-decoration-style: initial; text-decoration-color: initial; display: inline !important; float: none;&quot;&gt;(1, N)&lt;/span&gt;" style="text;whiteSpace=wrap;html=1;" parent="1" vertex="1">
          <mxGeometry x="470" y="405" width="40" height="30" as="geometry" />
        </mxCell>
        <mxCell id="mbd7B6UDu0PyMPiPhFEF-79" value="&lt;span style=&quot;color: rgb(0, 0, 0); font-family: Helvetica; font-size: 12px; font-style: normal; font-variant-ligatures: normal; font-variant-caps: normal; font-weight: 400; letter-spacing: normal; orphans: 2; text-align: center; text-indent: 0px; text-transform: none; widows: 2; word-spacing: 0px; -webkit-text-stroke-width: 0px; white-space: normal; background-color: rgb(251, 251, 251); text-decoration-thickness: initial; text-decoration-style: initial; text-decoration-color: initial; display: inline !important; float: none;&quot;&gt;(0, N)&lt;/span&gt;" style="text;whiteSpace=wrap;html=1;" parent="1" vertex="1">
          <mxGeometry x="467.5" y="295" width="40" height="30" as="geometry" />
        </mxCell>
        <mxCell id="mbd7B6UDu0PyMPiPhFEF-85" value="" style="endArrow=none;html=1;rounded=0;" parent="1" edge="1">
          <mxGeometry width="50" height="50" relative="1" as="geometry">
            <mxPoint x="560" y="440" as="sourcePoint" />
            <mxPoint x="610" y="420" as="targetPoint" />
          </mxGeometry>
        </mxCell>
        <mxCell id="mbd7B6UDu0PyMPiPhFEF-86" value="" style="endArrow=none;html=1;rounded=0;" parent="1" edge="1">
          <mxGeometry width="50" height="50" relative="1" as="geometry">
            <mxPoint x="560" y="470" as="sourcePoint" />
            <mxPoint x="610" y="450" as="targetPoint" />
          </mxGeometry>
        </mxCell>
        <mxCell id="mbd7B6UDu0PyMPiPhFEF-88" value="Totale" style="text;html=1;align=center;verticalAlign=middle;whiteSpace=wrap;rounded=0;" parent="1" vertex="1">
          <mxGeometry x="600" y="400" width="60" height="30" as="geometry" />
        </mxCell>
        <mxCell id="mbd7B6UDu0PyMPiPhFEF-90" value="Data acquisto" style="text;html=1;align=center;verticalAlign=middle;whiteSpace=wrap;rounded=0;fontStyle=1" parent="1" vertex="1">
          <mxGeometry x="600" y="435" width="60" height="30" as="geometry" />
        </mxCell>
        <mxCell id="mbd7B6UDu0PyMPiPhFEF-91" value="" style="endArrow=none;html=1;rounded=0;entryX=-0.014;entryY=0.169;entryDx=0;entryDy=0;entryPerimeter=0;" parent="1" target="mbd7B6UDu0PyMPiPhFEF-62" edge="1">
          <mxGeometry width="50" height="50" relative="1" as="geometry">
            <mxPoint x="380" y="420" as="sourcePoint" />
            <mxPoint x="400" y="420" as="targetPoint" />
          </mxGeometry>
        </mxCell>
        <mxCell id="mbd7B6UDu0PyMPiPhFEF-92" value="Sconto applicato" style="text;html=1;align=center;verticalAlign=middle;whiteSpace=wrap;rounded=0;" parent="1" vertex="1">
          <mxGeometry x="310" y="400" width="82.5" height="20" as="geometry" />
        </mxCell>
        <mxCell id="mbd7B6UDu0PyMPiPhFEF-100" value="&lt;span style=&quot;color: rgb(0, 0, 0); font-family: Helvetica; font-size: 12px; font-style: normal; font-variant-ligatures: normal; font-variant-caps: normal; font-weight: 400; letter-spacing: normal; orphans: 2; text-align: center; text-indent: 0px; text-transform: none; widows: 2; word-spacing: 0px; -webkit-text-stroke-width: 0px; white-space: normal; background-color: rgb(251, 251, 251); text-decoration-thickness: initial; text-decoration-style: initial; text-decoration-color: initial; display: inline !important; float: none;&quot;&gt;(0,1)&lt;/span&gt;" style="text;whiteSpace=wrap;html=1;" parent="1" vertex="1">
          <mxGeometry x="385" y="430" width="40" height="30" as="geometry" />
        </mxCell>
        <mxCell id="-2fi_qUKNYGEGxTryl-5-1" value="" style="endArrow=none;html=1;rounded=0;elbow=vertical;entryX=1;entryY=0;entryDx=0;entryDy=0;" parent="1" edge="1">
          <mxGeometry width="50" height="50" relative="1" as="geometry">
            <mxPoint x="430" y="420" as="sourcePoint" />
            <mxPoint x="440" y="430" as="targetPoint" />
          </mxGeometry>
        </mxCell>
        <mxCell id="-2fi_qUKNYGEGxTryl-5-2" value="" style="ellipse;whiteSpace=wrap;html=1;aspect=fixed;fillColor=#000000;" parent="1" vertex="1">
          <mxGeometry x="420" y="410" width="10" height="10" as="geometry" />
        </mxCell>
        <mxCell id="-2fi_qUKNYGEGxTryl-5-4" value="ID" style="text;html=1;align=center;verticalAlign=middle;resizable=0;points=[];autosize=1;strokeColor=none;fillColor=none;fontStyle=1" parent="1" vertex="1">
          <mxGeometry x="390" y="400" width="40" height="30" as="geometry" />
        </mxCell>
        <mxCell id="-2fi_qUKNYGEGxTryl-5-5" value="&lt;span&gt;ID&lt;/span&gt;" style="text;html=1;align=center;verticalAlign=middle;resizable=0;points=[];autosize=1;strokeColor=none;fillColor=none;fontStyle=1" parent="1" vertex="1">
          <mxGeometry x="540" y="-220" width="40" height="30" as="geometry" />
        </mxCell>
        <mxCell id="-2fi_qUKNYGEGxTryl-5-6" value="&lt;span&gt;ID&lt;/span&gt;" style="text;html=1;align=center;verticalAlign=middle;resizable=0;points=[];autosize=1;strokeColor=none;fillColor=none;fontStyle=1" parent="1" vertex="1">
          <mxGeometry x="370" y="5" width="40" height="30" as="geometry" />
        </mxCell>
        <mxCell id="wYVHhfULaMG1dtSvO_S3-1" value="" style="rhombus;whiteSpace=wrap;html=1;" parent="1" vertex="1">
          <mxGeometry x="820" y="140" width="40" height="40" as="geometry" />
        </mxCell>
        <mxCell id="wYVHhfULaMG1dtSvO_S3-2" value="" style="endArrow=none;html=1;rounded=0;entryX=0;entryY=0.5;entryDx=0;entryDy=0;" parent="1" edge="1">
          <mxGeometry width="50" height="50" relative="1" as="geometry">
            <mxPoint x="850" y="150" as="sourcePoint" />
            <mxPoint x="880" y="135" as="targetPoint" />
            <Array as="points">
              <mxPoint x="870" y="140" />
            </Array>
          </mxGeometry>
        </mxCell>
        <mxCell id="wYVHhfULaMG1dtSvO_S3-3" value="" style="endArrow=none;html=1;rounded=0;" parent="1" edge="1">
          <mxGeometry width="50" height="50" relative="1" as="geometry">
            <mxPoint x="680" y="290" as="sourcePoint" />
            <mxPoint x="840" y="290" as="targetPoint" />
          </mxGeometry>
        </mxCell>
        <mxCell id="wYVHhfULaMG1dtSvO_S3-4" value="" style="endArrow=none;html=1;rounded=0;entryX=0.5;entryY=1;entryDx=0;entryDy=0;" parent="1" target="wYVHhfULaMG1dtSvO_S3-1" edge="1">
          <mxGeometry width="50" height="50" relative="1" as="geometry">
            <mxPoint x="840" y="290" as="sourcePoint" />
            <mxPoint x="890" y="240" as="targetPoint" />
          </mxGeometry>
        </mxCell>
        <mxCell id="wYVHhfULaMG1dtSvO_S3-5" value="" style="endArrow=none;html=1;rounded=0;" parent="1" edge="1">
          <mxGeometry width="50" height="50" relative="1" as="geometry">
            <mxPoint x="839.7" y="140" as="sourcePoint" />
            <mxPoint x="840" y="-130" as="targetPoint" />
          </mxGeometry>
        </mxCell>
        <mxCell id="wYVHhfULaMG1dtSvO_S3-6" value="" style="endArrow=none;html=1;rounded=0;" parent="1" edge="1">
          <mxGeometry width="50" height="50" relative="1" as="geometry">
            <mxPoint x="600" y="-130" as="sourcePoint" />
            <mxPoint x="840" y="-130" as="targetPoint" />
          </mxGeometry>
        </mxCell>
        <mxCell id="wYVHhfULaMG1dtSvO_S3-7" value="" style="endArrow=none;html=1;rounded=0;" parent="1" edge="1">
          <mxGeometry width="50" height="50" relative="1" as="geometry">
            <mxPoint x="520" y="-130" as="sourcePoint" />
            <mxPoint x="600" y="-130" as="targetPoint" />
          </mxGeometry>
        </mxCell>
        <mxCell id="wYVHhfULaMG1dtSvO_S3-8" value="(0, N)" style="text;html=1;align=center;verticalAlign=middle;whiteSpace=wrap;rounded=0;" parent="1" vertex="1">
          <mxGeometry x="520" y="-130" width="60" height="30" as="geometry" />
        </mxCell>
        <mxCell id="wYVHhfULaMG1dtSvO_S3-9" value="" style="shape=flexArrow;endArrow=classic;html=1;rounded=0;" parent="1" edge="1">
          <mxGeometry width="50" height="50" relative="1" as="geometry">
            <mxPoint x="1010" y="90" as="sourcePoint" />
            <mxPoint x="1250" y="90" as="targetPoint" />
            <Array as="points">
              <mxPoint x="1130" y="90.31" />
            </Array>
          </mxGeometry>
        </mxCell>
        <mxCell id="wYVHhfULaMG1dtSvO_S3-10" value="Prodotto" style="rounded=0;whiteSpace=wrap;html=1;" parent="1" vertex="1">
          <mxGeometry x="2260" y="275" width="120" height="60" as="geometry" />
        </mxCell>
        <mxCell id="wYVHhfULaMG1dtSvO_S3-12" value="" style="rhombus;whiteSpace=wrap;html=1;" parent="1" vertex="1">
          <mxGeometry x="2300" y="415" width="40" height="40" as="geometry" />
        </mxCell>
        <mxCell id="wYVHhfULaMG1dtSvO_S3-14" value="" style="endArrow=none;html=1;rounded=0;" parent="1" edge="1">
          <mxGeometry width="50" height="50" relative="1" as="geometry">
            <mxPoint x="2319.5" y="415" as="sourcePoint" />
            <mxPoint x="2319.5" y="335" as="targetPoint" />
          </mxGeometry>
        </mxCell>
        <mxCell id="wYVHhfULaMG1dtSvO_S3-15" value="" style="endArrow=none;html=1;rounded=0;" parent="1" edge="1">
          <mxGeometry width="50" height="50" relative="1" as="geometry">
            <mxPoint x="2319.5" y="535" as="sourcePoint" />
            <mxPoint x="2319.5" y="455" as="targetPoint" />
          </mxGeometry>
        </mxCell>
        <mxCell id="wYVHhfULaMG1dtSvO_S3-16" value="Fattura" style="rounded=0;whiteSpace=wrap;html=1;" parent="1" vertex="1">
          <mxGeometry x="2260" y="535" width="120" height="60" as="geometry" />
        </mxCell>
        <mxCell id="wYVHhfULaMG1dtSvO_S3-17" value="è associato a" style="text;html=1;align=center;verticalAlign=middle;whiteSpace=wrap;rounded=0;" parent="1" vertex="1">
          <mxGeometry x="2230" y="385" width="85" height="20" as="geometry" />
        </mxCell>
        <mxCell id="wYVHhfULaMG1dtSvO_S3-19" value="è relativa a" style="text;html=1;align=center;verticalAlign=middle;whiteSpace=wrap;rounded=0;" parent="1" vertex="1">
          <mxGeometry x="2230" y="465" width="85" height="20" as="geometry" />
        </mxCell>
        <mxCell id="wYVHhfULaMG1dtSvO_S3-20" value="&lt;span style=&quot;color: rgb(0, 0, 0); font-family: Helvetica; font-size: 12px; font-style: normal; font-variant-ligatures: normal; font-variant-caps: normal; font-weight: 400; letter-spacing: normal; orphans: 2; text-align: center; text-indent: 0px; text-transform: none; widows: 2; word-spacing: 0px; -webkit-text-stroke-width: 0px; white-space: normal; background-color: rgb(251, 251, 251); text-decoration-thickness: initial; text-decoration-style: initial; text-decoration-color: initial; display: inline !important; float: none;&quot;&gt;(0, N)&lt;/span&gt;" style="text;whiteSpace=wrap;html=1;" parent="1" vertex="1">
          <mxGeometry x="2280" y="335" width="40" height="30" as="geometry" />
        </mxCell>
        <mxCell id="wYVHhfULaMG1dtSvO_S3-21" value="&lt;span style=&quot;color: rgb(0, 0, 0); font-family: Helvetica; font-size: 12px; font-style: normal; font-variant-ligatures: normal; font-variant-caps: normal; font-weight: 400; letter-spacing: normal; orphans: 2; text-align: center; text-indent: 0px; text-transform: none; widows: 2; word-spacing: 0px; -webkit-text-stroke-width: 0px; white-space: normal; background-color: rgb(251, 251, 251); text-decoration-thickness: initial; text-decoration-style: initial; text-decoration-color: initial; display: inline !important; float: none;&quot;&gt;(1, N)&lt;/span&gt;" style="text;whiteSpace=wrap;html=1;" parent="1" vertex="1">
          <mxGeometry x="2275" y="510" width="40" height="30" as="geometry" />
        </mxCell>
        <mxCell id="wYVHhfULaMG1dtSvO_S3-22" value="" style="endArrow=none;html=1;rounded=0;" parent="1" edge="1">
          <mxGeometry width="50" height="50" relative="1" as="geometry">
            <mxPoint x="2380" y="275" as="sourcePoint" />
            <mxPoint x="2390" y="265" as="targetPoint" />
          </mxGeometry>
        </mxCell>
        <mxCell id="wYVHhfULaMG1dtSvO_S3-23" value="" style="ellipse;whiteSpace=wrap;html=1;aspect=fixed;fillColor=#000000;" parent="1" vertex="1">
          <mxGeometry x="2390" y="255" width="10" height="10" as="geometry" />
        </mxCell>
        <mxCell id="wYVHhfULaMG1dtSvO_S3-24" value="" style="ellipse;whiteSpace=wrap;html=1;aspect=fixed;fillColor=#000000;" parent="1" vertex="1">
          <mxGeometry x="2390" y="515" width="10" height="10" as="geometry" />
        </mxCell>
        <mxCell id="wYVHhfULaMG1dtSvO_S3-25" value="" style="endArrow=none;html=1;rounded=0;" parent="1" edge="1">
          <mxGeometry width="50" height="50" relative="1" as="geometry">
            <mxPoint x="2380" y="535" as="sourcePoint" />
            <mxPoint x="2390" y="525" as="targetPoint" />
          </mxGeometry>
        </mxCell>
        <mxCell id="wYVHhfULaMG1dtSvO_S3-26" value="ID" style="text;html=1;align=center;verticalAlign=middle;resizable=0;points=[];autosize=1;strokeColor=none;fillColor=none;fontStyle=1" parent="1" vertex="1">
          <mxGeometry x="2390" y="505" width="40" height="30" as="geometry" />
        </mxCell>
        <mxCell id="wYVHhfULaMG1dtSvO_S3-27" value="ID" style="text;html=1;align=center;verticalAlign=middle;resizable=0;points=[];autosize=1;strokeColor=none;fillColor=none;fontStyle=1" parent="1" vertex="1">
          <mxGeometry x="2390" y="245" width="40" height="30" as="geometry" />
        </mxCell>
        <mxCell id="wYVHhfULaMG1dtSvO_S3-28" value="" style="endArrow=none;html=1;rounded=0;" parent="1" edge="1">
          <mxGeometry width="50" height="50" relative="1" as="geometry">
            <mxPoint x="2380" y="565" as="sourcePoint" />
            <mxPoint x="2400" y="555" as="targetPoint" />
          </mxGeometry>
        </mxCell>
        <mxCell id="wYVHhfULaMG1dtSvO_S3-30" value="Totale" style="text;html=1;align=center;verticalAlign=middle;whiteSpace=wrap;rounded=0;" parent="1" vertex="1">
          <mxGeometry x="2390" y="540" width="60" height="30" as="geometry" />
        </mxCell>
        <mxCell id="wYVHhfULaMG1dtSvO_S3-31" value="" style="endArrow=none;html=1;rounded=0;" parent="1" edge="1">
          <mxGeometry width="50" height="50" relative="1" as="geometry">
            <mxPoint x="2380" y="585" as="sourcePoint" />
            <mxPoint x="2400" y="575" as="targetPoint" />
          </mxGeometry>
        </mxCell>
        <mxCell id="wYVHhfULaMG1dtSvO_S3-32" value="Data acquisto" style="text;html=1;align=center;verticalAlign=middle;whiteSpace=wrap;rounded=0;" parent="1" vertex="1">
          <mxGeometry x="2390" y="555" width="100" height="40" as="geometry" />
        </mxCell>
        <mxCell id="wYVHhfULaMG1dtSvO_S3-33" value="" style="endArrow=none;html=1;rounded=0;" parent="1" edge="1">
          <mxGeometry width="50" height="50" relative="1" as="geometry">
            <mxPoint x="2240" y="545" as="sourcePoint" />
            <mxPoint x="2260" y="555" as="targetPoint" />
          </mxGeometry>
        </mxCell>
        <mxCell id="wYVHhfULaMG1dtSvO_S3-34" value="Sconto applicato" style="text;html=1;align=center;verticalAlign=middle;whiteSpace=wrap;rounded=0;" parent="1" vertex="1">
          <mxGeometry x="2140" y="515" width="100" height="40" as="geometry" />
        </mxCell>
        <mxCell id="wYVHhfULaMG1dtSvO_S3-35" value="&lt;span style=&quot;color: rgb(0, 0, 0); font-family: Helvetica; font-size: 12px; font-style: normal; font-variant-ligatures: normal; font-variant-caps: normal; font-weight: 400; letter-spacing: normal; orphans: 2; text-align: center; text-indent: 0px; text-transform: none; widows: 2; word-spacing: 0px; -webkit-text-stroke-width: 0px; white-space: normal; background-color: rgb(251, 251, 251); text-decoration-thickness: initial; text-decoration-style: initial; text-decoration-color: initial; display: inline !important; float: none;&quot;&gt;(0, 1)&lt;/span&gt;" style="text;whiteSpace=wrap;html=1;" parent="1" vertex="1">
          <mxGeometry x="2220" y="545" width="40" height="30" as="geometry" />
        </mxCell>
        <mxCell id="wYVHhfULaMG1dtSvO_S3-36" value="" style="endArrow=none;html=1;rounded=0;" parent="1" edge="1">
          <mxGeometry width="50" height="50" relative="1" as="geometry">
            <mxPoint x="2320" y="675" as="sourcePoint" />
            <mxPoint x="2320" y="595" as="targetPoint" />
          </mxGeometry>
        </mxCell>
        <mxCell id="wYVHhfULaMG1dtSvO_S3-37" value="" style="endArrow=none;html=1;rounded=0;" parent="1" edge="1">
          <mxGeometry width="50" height="50" relative="1" as="geometry">
            <mxPoint x="2135" y="675" as="sourcePoint" />
            <mxPoint x="2320" y="675" as="targetPoint" />
          </mxGeometry>
        </mxCell>
        <mxCell id="wYVHhfULaMG1dtSvO_S3-38" value="" style="rhombus;whiteSpace=wrap;html=1;" parent="1" vertex="1">
          <mxGeometry x="2100" y="655" width="40" height="40" as="geometry" />
        </mxCell>
        <mxCell id="wYVHhfULaMG1dtSvO_S3-40" value="" style="endArrow=none;html=1;rounded=0;" parent="1" edge="1">
          <mxGeometry width="50" height="50" relative="1" as="geometry">
            <mxPoint x="1920" y="675" as="sourcePoint" />
            <mxPoint x="1920" y="595" as="targetPoint" />
          </mxGeometry>
        </mxCell>
        <mxCell id="wYVHhfULaMG1dtSvO_S3-41" value="" style="endArrow=none;html=1;rounded=0;" parent="1" edge="1">
          <mxGeometry width="50" height="50" relative="1" as="geometry">
            <mxPoint x="1920" y="675" as="sourcePoint" />
            <mxPoint x="2100" y="674.82" as="targetPoint" />
          </mxGeometry>
        </mxCell>
        <mxCell id="wYVHhfULaMG1dtSvO_S3-42" value="Cliente" style="rounded=0;whiteSpace=wrap;html=1;" parent="1" vertex="1">
          <mxGeometry x="1860" y="535" width="120" height="60" as="geometry" />
        </mxCell>
        <mxCell id="wYVHhfULaMG1dtSvO_S3-43" value="&lt;span style=&quot;color: rgb(0, 0, 0); font-family: Helvetica; font-size: 12px; font-style: normal; font-variant-ligatures: normal; font-variant-caps: normal; font-weight: 400; letter-spacing: normal; orphans: 2; text-align: center; text-indent: 0px; text-transform: none; widows: 2; word-spacing: 0px; -webkit-text-stroke-width: 0px; white-space: normal; background-color: rgb(251, 251, 251); text-decoration-thickness: initial; text-decoration-style: initial; text-decoration-color: initial; display: inline !important; float: none;&quot;&gt;(1, 1)&lt;/span&gt;" style="text;whiteSpace=wrap;html=1;" parent="1" vertex="1">
          <mxGeometry x="2280" y="595" width="60" height="40" as="geometry" />
        </mxCell>
        <mxCell id="wYVHhfULaMG1dtSvO_S3-44" value="&lt;span style=&quot;color: rgb(0, 0, 0); font-family: Helvetica; font-size: 12px; font-style: normal; font-variant-ligatures: normal; font-variant-caps: normal; font-weight: 400; letter-spacing: normal; orphans: 2; text-align: center; text-indent: 0px; text-transform: none; widows: 2; word-spacing: 0px; -webkit-text-stroke-width: 0px; white-space: normal; background-color: rgb(251, 251, 251); text-decoration-thickness: initial; text-decoration-style: initial; text-decoration-color: initial; display: inline !important; float: none;&quot;&gt;(0, N)&lt;/span&gt;" style="text;whiteSpace=wrap;html=1;" parent="1" vertex="1">
          <mxGeometry x="1930" y="595" width="60" height="40" as="geometry" />
        </mxCell>
        <mxCell id="wYVHhfULaMG1dtSvO_S3-45" value="è associato a" style="text;html=1;align=center;verticalAlign=middle;whiteSpace=wrap;rounded=0;" parent="1" vertex="1">
          <mxGeometry x="2015" y="685" width="85" height="20" as="geometry" />
        </mxCell>
        <mxCell id="wYVHhfULaMG1dtSvO_S3-46" value="è associata a" style="text;html=1;align=center;verticalAlign=middle;whiteSpace=wrap;rounded=0;" parent="1" vertex="1">
          <mxGeometry x="2145" y="685" width="85" height="20" as="geometry" />
        </mxCell>
        <mxCell id="wYVHhfULaMG1dtSvO_S3-47" value="" style="endArrow=none;html=1;rounded=0;" parent="1" edge="1">
          <mxGeometry width="50" height="50" relative="1" as="geometry">
            <mxPoint x="1980" y="535" as="sourcePoint" />
            <mxPoint x="1990" y="525" as="targetPoint" />
          </mxGeometry>
        </mxCell>
        <mxCell id="wYVHhfULaMG1dtSvO_S3-48" value="" style="ellipse;whiteSpace=wrap;html=1;aspect=fixed;fillColor=#000000;" parent="1" vertex="1">
          <mxGeometry x="1990" y="515" width="10" height="10" as="geometry" />
        </mxCell>
        <mxCell id="wYVHhfULaMG1dtSvO_S3-49" value="Codice Fiscale" style="text;html=1;align=center;verticalAlign=middle;resizable=0;points=[];autosize=1;strokeColor=none;fillColor=none;fontStyle=1" parent="1" vertex="1">
          <mxGeometry x="2000" y="505" width="100" height="30" as="geometry" />
        </mxCell>
        <mxCell id="wYVHhfULaMG1dtSvO_S3-50" value="" style="endArrow=none;html=1;rounded=0;" parent="1" edge="1">
          <mxGeometry width="50" height="50" relative="1" as="geometry">
            <mxPoint x="1980" y="575" as="sourcePoint" />
            <mxPoint x="2000" y="565" as="targetPoint" />
          </mxGeometry>
        </mxCell>
        <mxCell id="wYVHhfULaMG1dtSvO_S3-51" value="Nome" style="text;html=1;align=center;verticalAlign=middle;resizable=0;points=[];autosize=1;strokeColor=none;fillColor=none;" parent="1" vertex="1">
          <mxGeometry x="1990" y="545" width="60" height="30" as="geometry" />
        </mxCell>
        <mxCell id="wYVHhfULaMG1dtSvO_S3-52" value="" style="endArrow=none;html=1;rounded=0;" parent="1" edge="1">
          <mxGeometry width="50" height="50" relative="1" as="geometry">
            <mxPoint x="1790" y="564.57" as="sourcePoint" />
            <mxPoint x="1860" y="564.57" as="targetPoint" />
          </mxGeometry>
        </mxCell>
        <mxCell id="wYVHhfULaMG1dtSvO_S3-53" value="" style="endArrow=none;html=1;rounded=0;entryX=0.5;entryY=1;entryDx=0;entryDy=0;" parent="1" target="wYVHhfULaMG1dtSvO_S3-54" edge="1">
          <mxGeometry width="50" height="50" relative="1" as="geometry">
            <mxPoint x="1790" y="565" as="sourcePoint" />
            <mxPoint x="1790" y="485" as="targetPoint" />
          </mxGeometry>
        </mxCell>
        <mxCell id="wYVHhfULaMG1dtSvO_S3-55" value="Tessera" style="rounded=0;whiteSpace=wrap;html=1;" parent="1" vertex="1">
          <mxGeometry x="1730" y="275" width="120" height="60" as="geometry" />
        </mxCell>
        <mxCell id="wYVHhfULaMG1dtSvO_S3-56" value="" style="endArrow=none;html=1;rounded=0;entryX=0.5;entryY=1;entryDx=0;entryDy=0;" parent="1" source="wYVHhfULaMG1dtSvO_S3-54" target="wYVHhfULaMG1dtSvO_S3-55" edge="1">
          <mxGeometry width="50" height="50" relative="1" as="geometry">
            <mxPoint x="1789.57" y="445" as="sourcePoint" />
            <mxPoint x="1789.57" y="365" as="targetPoint" />
          </mxGeometry>
        </mxCell>
        <mxCell id="wYVHhfULaMG1dtSvO_S3-57" value="" style="endArrow=none;html=1;rounded=0;entryX=0.5;entryY=1;entryDx=0;entryDy=0;" parent="1" target="wYVHhfULaMG1dtSvO_S3-54" edge="1">
          <mxGeometry width="50" height="50" relative="1" as="geometry">
            <mxPoint x="1789.57" y="445" as="sourcePoint" />
            <mxPoint x="1790" y="335" as="targetPoint" />
          </mxGeometry>
        </mxCell>
        <mxCell id="wYVHhfULaMG1dtSvO_S3-54" value="" style="rhombus;whiteSpace=wrap;html=1;" parent="1" vertex="1">
          <mxGeometry x="1770" y="420" width="40" height="40" as="geometry" />
        </mxCell>
        <mxCell id="wYVHhfULaMG1dtSvO_S3-58" value="possiede" style="text;html=1;align=center;verticalAlign=middle;whiteSpace=wrap;rounded=0;" parent="1" vertex="1">
          <mxGeometry x="1800" y="455" width="60" height="30" as="geometry" />
        </mxCell>
        <mxCell id="wYVHhfULaMG1dtSvO_S3-59" value="appartiene a" style="text;html=1;align=center;verticalAlign=middle;whiteSpace=wrap;rounded=0;" parent="1" vertex="1">
          <mxGeometry x="1800" y="390" width="70" height="30" as="geometry" />
        </mxCell>
        <mxCell id="wYVHhfULaMG1dtSvO_S3-60" value="&lt;span style=&quot;color: rgb(0, 0, 0); font-family: Helvetica; font-size: 12px; font-style: normal; font-variant-ligatures: normal; font-variant-caps: normal; font-weight: 400; letter-spacing: normal; orphans: 2; text-align: center; text-indent: 0px; text-transform: none; widows: 2; word-spacing: 0px; -webkit-text-stroke-width: 0px; white-space: normal; background-color: rgb(251, 251, 251); text-decoration-thickness: initial; text-decoration-style: initial; text-decoration-color: initial; display: inline !important; float: none;&quot;&gt;(0, 1)&lt;/span&gt;" style="text;whiteSpace=wrap;html=1;" parent="1" vertex="1">
          <mxGeometry x="1810" y="565" width="60" height="40" as="geometry" />
        </mxCell>
        <mxCell id="wYVHhfULaMG1dtSvO_S3-61" value="&lt;span style=&quot;color: rgb(0, 0, 0); font-family: Helvetica; font-size: 12px; font-style: normal; font-variant-ligatures: normal; font-variant-caps: normal; font-weight: 400; letter-spacing: normal; orphans: 2; text-align: center; text-indent: 0px; text-transform: none; widows: 2; word-spacing: 0px; -webkit-text-stroke-width: 0px; white-space: normal; background-color: rgb(251, 251, 251); text-decoration-thickness: initial; text-decoration-style: initial; text-decoration-color: initial; display: inline !important; float: none;&quot;&gt;(1, 1)&lt;/span&gt;" style="text;whiteSpace=wrap;html=1;" parent="1" vertex="1">
          <mxGeometry x="1800" y="335" width="60" height="40" as="geometry" />
        </mxCell>
        <mxCell id="wYVHhfULaMG1dtSvO_S3-62" value="" style="endArrow=none;html=1;rounded=0;" parent="1" edge="1">
          <mxGeometry width="50" height="50" relative="1" as="geometry">
            <mxPoint x="1760" y="375" as="sourcePoint" />
            <mxPoint x="1760" y="335" as="targetPoint" />
          </mxGeometry>
        </mxCell>
        <mxCell id="wYVHhfULaMG1dtSvO_S3-63" value="" style="endArrow=none;html=1;rounded=0;" parent="1" edge="1">
          <mxGeometry width="50" height="50" relative="1" as="geometry">
            <mxPoint x="1760" y="375" as="sourcePoint" />
            <mxPoint x="1840" y="375" as="targetPoint" />
          </mxGeometry>
        </mxCell>
        <mxCell id="wYVHhfULaMG1dtSvO_S3-64" value="" style="ellipse;whiteSpace=wrap;html=1;aspect=fixed;fillColor=#000000;" parent="1" vertex="1">
          <mxGeometry x="1840" y="370" width="10" height="10" as="geometry" />
        </mxCell>
        <mxCell id="wYVHhfULaMG1dtSvO_S3-67" value="" style="endArrow=none;html=1;rounded=0;" parent="1" edge="1">
          <mxGeometry width="50" height="50" relative="1" as="geometry">
            <mxPoint x="1850" y="305" as="sourcePoint" />
            <mxPoint x="1870" y="295" as="targetPoint" />
          </mxGeometry>
        </mxCell>
        <mxCell id="wYVHhfULaMG1dtSvO_S3-68" value="" style="endArrow=none;html=1;rounded=0;" parent="1" edge="1">
          <mxGeometry width="50" height="50" relative="1" as="geometry">
            <mxPoint x="1850" y="325" as="sourcePoint" />
            <mxPoint x="1870" y="315" as="targetPoint" />
          </mxGeometry>
        </mxCell>
        <mxCell id="wYVHhfULaMG1dtSvO_S3-69" value="Data di richiesta" style="text;html=1;align=center;verticalAlign=middle;whiteSpace=wrap;rounded=0;" parent="1" vertex="1">
          <mxGeometry x="1875" y="275" width="90" height="30" as="geometry" />
        </mxCell>
        <mxCell id="wYVHhfULaMG1dtSvO_S3-70" value="Saldo punti" style="text;html=1;align=center;verticalAlign=middle;whiteSpace=wrap;rounded=0;" parent="1" vertex="1">
          <mxGeometry x="1860" y="300" width="100" height="30" as="geometry" />
        </mxCell>
        <mxCell id="wYVHhfULaMG1dtSvO_S3-71" value="Negozio" style="rounded=0;whiteSpace=wrap;html=1;" parent="1" vertex="1">
          <mxGeometry x="1950" y="20" width="120" height="60" as="geometry" />
        </mxCell>
        <mxCell id="wYVHhfULaMG1dtSvO_S3-72" value="" style="rhombus;whiteSpace=wrap;html=1;" parent="1" vertex="1">
          <mxGeometry x="1780" y="135" width="40" height="40" as="geometry" />
        </mxCell>
        <mxCell id="wYVHhfULaMG1dtSvO_S3-74" value="" style="endArrow=none;html=1;rounded=0;entryX=0.5;entryY=1;entryDx=0;entryDy=0;" parent="1" edge="1">
          <mxGeometry width="50" height="50" relative="1" as="geometry">
            <mxPoint x="2000" y="155" as="sourcePoint" />
            <mxPoint x="2000" y="80" as="targetPoint" />
          </mxGeometry>
        </mxCell>
        <mxCell id="wYVHhfULaMG1dtSvO_S3-75" value="" style="endArrow=none;html=1;rounded=0;exitX=1;exitY=0.5;exitDx=0;exitDy=0;" parent="1" source="wYVHhfULaMG1dtSvO_S3-72" edge="1">
          <mxGeometry width="50" height="50" relative="1" as="geometry">
            <mxPoint x="1970" y="154.47000000000003" as="sourcePoint" />
            <mxPoint x="2000" y="155" as="targetPoint" />
          </mxGeometry>
        </mxCell>
        <mxCell id="wYVHhfULaMG1dtSvO_S3-77" value="" style="endArrow=none;html=1;rounded=0;entryX=0.5;entryY=1;entryDx=0;entryDy=0;" parent="1" target="wYVHhfULaMG1dtSvO_S3-72" edge="1">
          <mxGeometry width="50" height="50" relative="1" as="geometry">
            <mxPoint x="1799.74" y="275" as="sourcePoint" />
            <mxPoint x="1799.74" y="215" as="targetPoint" />
          </mxGeometry>
        </mxCell>
        <mxCell id="wYVHhfULaMG1dtSvO_S3-79" value="rilascia" style="text;html=1;align=center;verticalAlign=middle;whiteSpace=wrap;rounded=0;" parent="1" vertex="1">
          <mxGeometry x="1815" y="125" width="60" height="30" as="geometry" />
        </mxCell>
        <mxCell id="wYVHhfULaMG1dtSvO_S3-80" value="rilasciata da" style="text;html=1;align=center;verticalAlign=middle;resizable=0;points=[];autosize=1;strokeColor=none;fillColor=none;" parent="1" vertex="1">
          <mxGeometry x="1800" y="165" width="90" height="30" as="geometry" />
        </mxCell>
        <mxCell id="wYVHhfULaMG1dtSvO_S3-81" value="&lt;span style=&quot;color: rgb(0, 0, 0); font-family: Helvetica; font-size: 12px; font-style: normal; font-variant-ligatures: normal; font-variant-caps: normal; font-weight: 400; letter-spacing: normal; orphans: 2; text-align: center; text-indent: 0px; text-transform: none; widows: 2; word-spacing: 0px; -webkit-text-stroke-width: 0px; white-space: normal; background-color: rgb(251, 251, 251); text-decoration-thickness: initial; text-decoration-style: initial; text-decoration-color: initial; display: inline !important; float: none;&quot;&gt;(1, 1)&lt;/span&gt;" style="text;whiteSpace=wrap;html=1;" parent="1" vertex="1">
          <mxGeometry x="1805" y="250" width="60" height="40" as="geometry" />
        </mxCell>
        <mxCell id="wYVHhfULaMG1dtSvO_S3-82" value="&lt;span style=&quot;color: rgb(0, 0, 0); font-family: Helvetica; font-size: 12px; font-style: normal; font-variant-ligatures: normal; font-variant-caps: normal; font-weight: 400; letter-spacing: normal; orphans: 2; text-align: center; text-indent: 0px; text-transform: none; widows: 2; word-spacing: 0px; -webkit-text-stroke-width: 0px; white-space: normal; background-color: rgb(251, 251, 251); text-decoration-thickness: initial; text-decoration-style: initial; text-decoration-color: initial; display: inline !important; float: none;&quot;&gt;(0, N)&lt;/span&gt;" style="text;whiteSpace=wrap;html=1;" parent="1" vertex="1">
          <mxGeometry x="1940" y="75" width="60" height="40" as="geometry" />
        </mxCell>
        <mxCell id="wYVHhfULaMG1dtSvO_S3-83" value="Ordine" style="rounded=0;whiteSpace=wrap;html=1;" parent="1" vertex="1">
          <mxGeometry x="2260" y="20" width="120" height="60" as="geometry" />
        </mxCell>
        <mxCell id="wYVHhfULaMG1dtSvO_S3-84" value="" style="rhombus;whiteSpace=wrap;html=1;" parent="1" vertex="1">
          <mxGeometry x="2150" y="35" width="40" height="40" as="geometry" />
        </mxCell>
        <mxCell id="wYVHhfULaMG1dtSvO_S3-85" value="" style="endArrow=none;html=1;rounded=0;exitX=1;exitY=0.5;exitDx=0;exitDy=0;" parent="1" edge="1">
          <mxGeometry width="50" height="50" relative="1" as="geometry">
            <mxPoint x="2070" y="54.47" as="sourcePoint" />
            <mxPoint x="2150" y="54.47" as="targetPoint" />
          </mxGeometry>
        </mxCell>
        <mxCell id="wYVHhfULaMG1dtSvO_S3-87" value="effettua" style="text;html=1;align=center;verticalAlign=middle;whiteSpace=wrap;rounded=0;rotation=90;" parent="1" vertex="1">
          <mxGeometry x="2100" y="15" width="72.5" height="20" as="geometry" />
        </mxCell>
        <mxCell id="wYVHhfULaMG1dtSvO_S3-88" value="è effettuato da" style="text;html=1;align=center;verticalAlign=middle;whiteSpace=wrap;rounded=0;rotation=90;" parent="1" vertex="1">
          <mxGeometry x="2160" width="90" height="20" as="geometry" />
        </mxCell>
        <mxCell id="wYVHhfULaMG1dtSvO_S3-89" value="&lt;span style=&quot;color: rgb(0, 0, 0); font-family: Helvetica; font-size: 12px; font-style: normal; font-variant-ligatures: normal; font-variant-caps: normal; font-weight: 400; letter-spacing: normal; orphans: 2; text-align: center; text-indent: 0px; text-transform: none; widows: 2; word-spacing: 0px; -webkit-text-stroke-width: 0px; white-space: normal; background-color: rgb(251, 251, 251); text-decoration-thickness: initial; text-decoration-style: initial; text-decoration-color: initial; display: inline !important; float: none;&quot;&gt;(0, N)&lt;/span&gt;" style="text;whiteSpace=wrap;html=1;" parent="1" vertex="1">
          <mxGeometry x="2070" y="50" width="60" height="40" as="geometry" />
        </mxCell>
        <mxCell id="wYVHhfULaMG1dtSvO_S3-90" value="&lt;span style=&quot;color: rgb(0, 0, 0); font-family: Helvetica; font-size: 12px; font-style: normal; font-variant-ligatures: normal; font-variant-caps: normal; font-weight: 400; letter-spacing: normal; orphans: 2; text-align: center; text-indent: 0px; text-transform: none; widows: 2; word-spacing: 0px; -webkit-text-stroke-width: 0px; white-space: normal; background-color: rgb(251, 251, 251); text-decoration-thickness: initial; text-decoration-style: initial; text-decoration-color: initial; display: inline !important; float: none;&quot;&gt;(1, 1)&lt;/span&gt;" style="text;whiteSpace=wrap;html=1;" parent="1" vertex="1">
          <mxGeometry x="2220" y="50" width="60" height="40" as="geometry" />
        </mxCell>
        <mxCell id="wYVHhfULaMG1dtSvO_S3-91" value="" style="rhombus;whiteSpace=wrap;html=1;" parent="1" vertex="1">
          <mxGeometry x="2300" y="155" width="40" height="40" as="geometry" />
        </mxCell>
        <mxCell id="wYVHhfULaMG1dtSvO_S3-92" value="" style="endArrow=none;html=1;rounded=0;entryX=0.5;entryY=1;entryDx=0;entryDy=0;" parent="1" edge="1">
          <mxGeometry width="50" height="50" relative="1" as="geometry">
            <mxPoint x="2319.6800000000003" y="155" as="sourcePoint" />
            <mxPoint x="2319.6800000000003" y="80" as="targetPoint" />
          </mxGeometry>
        </mxCell>
        <mxCell id="wYVHhfULaMG1dtSvO_S3-93" value="" style="endArrow=none;html=1;rounded=0;entryX=0.5;entryY=1;entryDx=0;entryDy=0;" parent="1" target="wYVHhfULaMG1dtSvO_S3-91" edge="1">
          <mxGeometry width="50" height="50" relative="1" as="geometry">
            <mxPoint x="2320" y="275" as="sourcePoint" />
            <mxPoint x="2320" y="200" as="targetPoint" />
          </mxGeometry>
        </mxCell>
        <mxCell id="wYVHhfULaMG1dtSvO_S3-94" value="cont&lt;span style=&quot;color: rgba(0, 0, 0, 0); font-family: monospace; font-size: 0px; text-align: start; text-wrap-mode: nowrap;&quot;&gt;%3CmxGraphModel%3E%3Croot%3E%3CmxCell%20id%3D%220%22%2F%3E%3CmxCell%20id%3D%221%22%20parent%3D%220%22%2F%3E%3CmxCell%20id%3D%222%22%20value%3D%22fornisce%22%20style%3D%22text%3Bhtml%3D1%3Balign%3Dcenter%3BverticalAlign%3Dmiddle%3BwhiteSpace%3Dwrap%3Brounded%3D0%3B%22%20vertex%3D%221%22%20parent%3D%221%22%3E%3CmxGeometry%20x%3D%22565%22%20y%3D%22110%22%20width%3D%2260%22%20height%3D%2230%22%20as%3D%22geometry%22%2F%3E%3C%2FmxCell%3E%3C%2Froot%3E%3C%2FmxGraphModel%3E&lt;/span&gt;iene" style="text;html=1;align=center;verticalAlign=middle;whiteSpace=wrap;rounded=0;" parent="1" vertex="1">
          <mxGeometry x="2330" y="135" width="50" height="20" as="geometry" />
        </mxCell>
        <mxCell id="wYVHhfULaMG1dtSvO_S3-95" value="è contenuto in" style="text;html=1;align=center;verticalAlign=middle;whiteSpace=wrap;rounded=0;" parent="1" vertex="1">
          <mxGeometry x="2330" y="190" width="80" height="20" as="geometry" />
        </mxCell>
        <mxCell id="wYVHhfULaMG1dtSvO_S3-97" value="quantità" style="text;html=1;align=center;verticalAlign=middle;whiteSpace=wrap;rounded=0;" parent="1" vertex="1">
          <mxGeometry x="2230" y="190" width="50" height="20" as="geometry" />
        </mxCell>
        <mxCell id="wYVHhfULaMG1dtSvO_S3-100" value="&lt;span style=&quot;color: rgb(0, 0, 0); font-family: Helvetica; font-size: 12px; font-style: normal; font-variant-ligatures: normal; font-variant-caps: normal; font-weight: 400; letter-spacing: normal; orphans: 2; text-align: center; text-indent: 0px; text-transform: none; widows: 2; word-spacing: 0px; -webkit-text-stroke-width: 0px; white-space: normal; background-color: rgb(251, 251, 251); text-decoration-thickness: initial; text-decoration-style: initial; text-decoration-color: initial; display: inline !important; float: none;&quot;&gt;(1, N)&lt;/span&gt;" style="text;whiteSpace=wrap;html=1;" parent="1" vertex="1">
          <mxGeometry x="2320" y="75" width="60" height="40" as="geometry" />
        </mxCell>
        <mxCell id="wYVHhfULaMG1dtSvO_S3-101" value="(0, N)" style="text;html=1;align=center;verticalAlign=middle;whiteSpace=wrap;rounded=0;" parent="1" vertex="1">
          <mxGeometry x="2310" y="250" width="60" height="30" as="geometry" />
        </mxCell>
        <mxCell id="wYVHhfULaMG1dtSvO_S3-102" value="" style="endArrow=none;html=1;rounded=0;" parent="1" edge="1">
          <mxGeometry width="50" height="50" relative="1" as="geometry">
            <mxPoint x="2280" y="195" as="sourcePoint" />
            <mxPoint x="2310" y="185" as="targetPoint" />
          </mxGeometry>
        </mxCell>
        <mxCell id="wYVHhfULaMG1dtSvO_S3-103" value="" style="endArrow=none;html=1;rounded=0;" parent="1" edge="1">
          <mxGeometry width="50" height="50" relative="1" as="geometry">
            <mxPoint x="2240" y="285" as="sourcePoint" />
            <mxPoint x="2260" y="295" as="targetPoint" />
          </mxGeometry>
        </mxCell>
        <mxCell id="wYVHhfULaMG1dtSvO_S3-104" value="" style="endArrow=none;html=1;rounded=0;" parent="1" edge="1">
          <mxGeometry width="50" height="50" relative="1" as="geometry">
            <mxPoint x="2240" y="315" as="sourcePoint" />
            <mxPoint x="2260" y="325" as="targetPoint" />
          </mxGeometry>
        </mxCell>
        <mxCell id="wYVHhfULaMG1dtSvO_S3-105" value="nome" style="text;html=1;align=center;verticalAlign=middle;whiteSpace=wrap;rounded=0;" parent="1" vertex="1">
          <mxGeometry x="2190" y="270" width="50" height="20" as="geometry" />
        </mxCell>
        <mxCell id="wYVHhfULaMG1dtSvO_S3-106" value="descrizione" style="text;html=1;align=center;verticalAlign=middle;whiteSpace=wrap;rounded=0;" parent="1" vertex="1">
          <mxGeometry x="2180" y="300" width="50" height="20" as="geometry" />
        </mxCell>
        <mxCell id="wYVHhfULaMG1dtSvO_S3-112" value="" style="rhombus;whiteSpace=wrap;html=1;" parent="1" vertex="1">
          <mxGeometry x="2460" y="35" width="40" height="40" as="geometry" />
        </mxCell>
        <mxCell id="wYVHhfULaMG1dtSvO_S3-113" value="" style="endArrow=none;html=1;rounded=0;exitX=1;exitY=0.5;exitDx=0;exitDy=0;" parent="1" edge="1">
          <mxGeometry width="50" height="50" relative="1" as="geometry">
            <mxPoint x="2380" y="54.47" as="sourcePoint" />
            <mxPoint x="2460" y="54.47" as="targetPoint" />
          </mxGeometry>
        </mxCell>
        <mxCell id="wYVHhfULaMG1dtSvO_S3-116" value="&lt;span style=&quot;color: rgb(0, 0, 0); font-family: Helvetica; font-size: 12px; font-style: normal; font-variant-ligatures: normal; font-variant-caps: normal; font-weight: 400; letter-spacing: normal; orphans: 2; text-align: center; text-indent: 0px; text-transform: none; widows: 2; word-spacing: 0px; -webkit-text-stroke-width: 0px; white-space: normal; background-color: rgb(251, 251, 251); text-decoration-thickness: initial; text-decoration-style: initial; text-decoration-color: initial; display: inline !important; float: none;&quot;&gt;(1, 1)&lt;/span&gt;" style="text;whiteSpace=wrap;html=1;" parent="1" vertex="1">
          <mxGeometry x="2380" y="50" width="60" height="40" as="geometry" />
        </mxCell>
        <mxCell id="wYVHhfULaMG1dtSvO_S3-118" value="Fornitore" style="rounded=0;whiteSpace=wrap;html=1;" parent="1" vertex="1">
          <mxGeometry x="2570" y="20" width="120" height="60" as="geometry" />
        </mxCell>
        <mxCell id="wYVHhfULaMG1dtSvO_S3-119" value="(0, N)" style="text;html=1;align=center;verticalAlign=middle;whiteSpace=wrap;rounded=0;" parent="1" vertex="1">
          <mxGeometry x="2520" y="50" width="60" height="30" as="geometry" />
        </mxCell>
        <mxCell id="wYVHhfULaMG1dtSvO_S3-120" value="" style="endArrow=none;html=1;rounded=0;" parent="1" edge="1">
          <mxGeometry width="50" height="50" relative="1" as="geometry">
            <mxPoint x="2500" y="55" as="sourcePoint" />
            <mxPoint x="2570" y="55" as="targetPoint" />
          </mxGeometry>
        </mxCell>
        <mxCell id="wYVHhfULaMG1dtSvO_S3-121" value="" style="endArrow=none;html=1;rounded=0;exitX=1;exitY=0.5;exitDx=0;exitDy=0;" parent="1" edge="1">
          <mxGeometry width="50" height="50" relative="1" as="geometry">
            <mxPoint x="2190" y="55" as="sourcePoint" />
            <mxPoint x="2260" y="55" as="targetPoint" />
          </mxGeometry>
        </mxCell>
        <mxCell id="wYVHhfULaMG1dtSvO_S3-122" value="" style="endArrow=none;html=1;rounded=0;" parent="1" edge="1">
          <mxGeometry width="50" height="50" relative="1" as="geometry">
            <mxPoint x="2690" y="55" as="sourcePoint" />
            <mxPoint x="2710" y="45" as="targetPoint" />
          </mxGeometry>
        </mxCell>
        <mxCell id="wYVHhfULaMG1dtSvO_S3-123" value="P.IVA" style="text;html=1;align=center;verticalAlign=middle;whiteSpace=wrap;rounded=0;" parent="1" vertex="1">
          <mxGeometry x="2700" y="25" width="60" height="30" as="geometry" />
        </mxCell>
        <mxCell id="wYVHhfULaMG1dtSvO_S3-124" value="è inviato da" style="text;html=1;align=center;verticalAlign=middle;whiteSpace=wrap;rounded=0;rotation=90;" parent="1" vertex="1">
          <mxGeometry x="2417.5" y="5" width="72.5" height="20" as="geometry" />
        </mxCell>
        <mxCell id="wYVHhfULaMG1dtSvO_S3-125" value="invia" style="text;html=1;align=center;verticalAlign=middle;whiteSpace=wrap;rounded=0;rotation=90;" parent="1" vertex="1">
          <mxGeometry x="2490" y="25" width="50" height="20" as="geometry" />
        </mxCell>
        <mxCell id="wYVHhfULaMG1dtSvO_S3-130" value="Orario apertura" style="text;html=1;align=center;verticalAlign=middle;whiteSpace=wrap;rounded=0;" parent="1" vertex="1">
          <mxGeometry x="1810" y="-20" width="100" height="30" as="geometry" />
        </mxCell>
        <mxCell id="wYVHhfULaMG1dtSvO_S3-131" value="Orario chiusura" style="text;html=1;align=center;verticalAlign=middle;whiteSpace=wrap;rounded=0;" parent="1" vertex="1">
          <mxGeometry x="1810" y="95" width="100" height="30" as="geometry" />
        </mxCell>
        <mxCell id="wYVHhfULaMG1dtSvO_S3-133" value="" style="endArrow=none;html=1;rounded=0;" parent="1" edge="1">
          <mxGeometry width="50" height="50" relative="1" as="geometry">
            <mxPoint x="1730" y="50" as="sourcePoint" />
            <mxPoint x="1950" y="50" as="targetPoint" />
          </mxGeometry>
        </mxCell>
        <mxCell id="wYVHhfULaMG1dtSvO_S3-135" value="" style="endArrow=none;html=1;rounded=0;" parent="1" edge="1">
          <mxGeometry width="50" height="50" relative="1" as="geometry">
            <mxPoint x="2380" y="20" as="sourcePoint" />
            <mxPoint x="2390" y="10" as="targetPoint" />
          </mxGeometry>
        </mxCell>
        <mxCell id="wYVHhfULaMG1dtSvO_S3-136" value="" style="ellipse;whiteSpace=wrap;html=1;aspect=fixed;fillColor=#000000;" parent="1" vertex="1">
          <mxGeometry x="2390" width="10" height="10" as="geometry" />
        </mxCell>
        <mxCell id="wYVHhfULaMG1dtSvO_S3-137" value="ID" style="text;html=1;align=center;verticalAlign=middle;resizable=0;points=[];autosize=1;strokeColor=none;fillColor=none;fontStyle=1" parent="1" vertex="1">
          <mxGeometry x="2390" y="-10" width="40" height="30" as="geometry" />
        </mxCell>
        <mxCell id="wYVHhfULaMG1dtSvO_S3-138" value="" style="endArrow=none;html=1;rounded=0;" parent="1" edge="1">
          <mxGeometry width="50" height="50" relative="1" as="geometry">
            <mxPoint x="2280" y="80" as="sourcePoint" />
            <mxPoint x="2260" y="105" as="targetPoint" />
          </mxGeometry>
        </mxCell>
        <mxCell id="wYVHhfULaMG1dtSvO_S3-139" value="Data di consegna" style="text;html=1;align=center;verticalAlign=middle;whiteSpace=wrap;rounded=0;" parent="1" vertex="1">
          <mxGeometry x="2215" y="115" width="50" height="20" as="geometry" />
        </mxCell>
        <mxCell id="wYVHhfULaMG1dtSvO_S3-140" value="Punto Deposito" style="rounded=0;whiteSpace=wrap;html=1;" parent="1" vertex="1">
          <mxGeometry x="2260" y="-265" width="120" height="60" as="geometry" />
        </mxCell>
        <mxCell id="wYVHhfULaMG1dtSvO_S3-141" value="" style="endArrow=none;html=1;rounded=0;" parent="1" edge="1">
          <mxGeometry width="50" height="50" relative="1" as="geometry">
            <mxPoint x="2380" y="-265" as="sourcePoint" />
            <mxPoint x="2390" y="-275" as="targetPoint" />
          </mxGeometry>
        </mxCell>
        <mxCell id="wYVHhfULaMG1dtSvO_S3-142" value="" style="ellipse;whiteSpace=wrap;html=1;aspect=fixed;fillColor=#000000;" parent="1" vertex="1">
          <mxGeometry x="2390" y="-285" width="10" height="10" as="geometry" />
        </mxCell>
        <mxCell id="wYVHhfULaMG1dtSvO_S3-143" value="&lt;span&gt;ID&lt;/span&gt;" style="text;html=1;align=center;verticalAlign=middle;resizable=0;points=[];autosize=1;strokeColor=none;fillColor=none;fontStyle=1" parent="1" vertex="1">
          <mxGeometry x="2390" y="-295" width="40" height="30" as="geometry" />
        </mxCell>
        <mxCell id="wYVHhfULaMG1dtSvO_S3-144" value="" style="endArrow=none;html=1;rounded=0;" parent="1" edge="1">
          <mxGeometry width="50" height="50" relative="1" as="geometry">
            <mxPoint x="2380" y="-235" as="sourcePoint" />
            <mxPoint x="2400" y="-245" as="targetPoint" />
          </mxGeometry>
        </mxCell>
        <mxCell id="wYVHhfULaMG1dtSvO_S3-145" value="Indirizzo" style="text;html=1;align=center;verticalAlign=middle;whiteSpace=wrap;rounded=0;" parent="1" vertex="1">
          <mxGeometry x="2400" y="-265" width="60" height="30" as="geometry" />
        </mxCell>
        <mxCell id="wYVHhfULaMG1dtSvO_S3-146" value="" style="rhombus;whiteSpace=wrap;html=1;" parent="1" vertex="1">
          <mxGeometry x="2000" y="-145" width="40" height="40" as="geometry" />
        </mxCell>
        <mxCell id="wYVHhfULaMG1dtSvO_S3-147" value="" style="rhombus;whiteSpace=wrap;html=1;" parent="1" vertex="1">
          <mxGeometry x="2600" y="-145" width="40" height="40" as="geometry" />
        </mxCell>
        <mxCell id="wYVHhfULaMG1dtSvO_S3-148" value="" style="endArrow=none;html=1;rounded=0;entryX=0.5;entryY=1;entryDx=0;entryDy=0;" parent="1" target="wYVHhfULaMG1dtSvO_S3-147" edge="1">
          <mxGeometry width="50" height="50" relative="1" as="geometry">
            <mxPoint x="2619.76" y="20" as="sourcePoint" />
            <mxPoint x="2619.76" y="-30" as="targetPoint" />
          </mxGeometry>
        </mxCell>
        <mxCell id="wYVHhfULaMG1dtSvO_S3-149" value="" style="endArrow=none;html=1;rounded=0;exitX=0;exitY=0.5;exitDx=0;exitDy=0;" parent="1" source="wYVHhfULaMG1dtSvO_S3-147" edge="1">
          <mxGeometry width="50" height="50" relative="1" as="geometry">
            <mxPoint x="2350" y="-45" as="sourcePoint" />
            <mxPoint x="2360" y="-125" as="targetPoint" />
          </mxGeometry>
        </mxCell>
        <mxCell id="wYVHhfULaMG1dtSvO_S3-150" value="" style="endArrow=none;html=1;rounded=0;entryX=0.5;entryY=1;entryDx=0;entryDy=0;" parent="1" edge="1">
          <mxGeometry width="50" height="50" relative="1" as="geometry">
            <mxPoint x="2360" y="-125" as="sourcePoint" />
            <mxPoint x="2360.24" y="-205" as="targetPoint" />
          </mxGeometry>
        </mxCell>
        <mxCell id="wYVHhfULaMG1dtSvO_S3-151" value="" style="endArrow=none;html=1;rounded=0;entryX=0.5;entryY=1;entryDx=0;entryDy=0;" parent="1" edge="1">
          <mxGeometry width="50" height="50" relative="1" as="geometry">
            <mxPoint x="2020" y="20" as="sourcePoint" />
            <mxPoint x="2020.2399999999998" y="-105" as="targetPoint" />
          </mxGeometry>
        </mxCell>
        <mxCell id="wYVHhfULaMG1dtSvO_S3-152" value="" style="endArrow=none;html=1;rounded=0;exitX=0;exitY=0.5;exitDx=0;exitDy=0;" parent="1" edge="1">
          <mxGeometry width="50" height="50" relative="1" as="geometry">
            <mxPoint x="2280" y="-125.4" as="sourcePoint" />
            <mxPoint x="2040" y="-125.4" as="targetPoint" />
          </mxGeometry>
        </mxCell>
        <mxCell id="wYVHhfULaMG1dtSvO_S3-153" value="" style="endArrow=none;html=1;rounded=0;entryX=0.5;entryY=1;entryDx=0;entryDy=0;" parent="1" edge="1">
          <mxGeometry width="50" height="50" relative="1" as="geometry">
            <mxPoint x="2280" y="-125" as="sourcePoint" />
            <mxPoint x="2280.24" y="-205" as="targetPoint" />
          </mxGeometry>
        </mxCell>
        <mxCell id="wYVHhfULaMG1dtSvO_S3-154" value="IS A" style="text;html=1;align=center;verticalAlign=middle;whiteSpace=wrap;rounded=0;" parent="1" vertex="1">
          <mxGeometry x="1950" y="-140" width="60" height="30" as="geometry" />
        </mxCell>
        <mxCell id="wYVHhfULaMG1dtSvO_S3-155" value="IS A" style="text;html=1;align=center;verticalAlign=middle;whiteSpace=wrap;rounded=0;" parent="1" vertex="1">
          <mxGeometry x="2630" y="-140" width="60" height="30" as="geometry" />
        </mxCell>
        <mxCell id="wYVHhfULaMG1dtSvO_S3-156" value="(1, 1)" style="text;html=1;align=center;verticalAlign=middle;whiteSpace=wrap;rounded=0;" parent="1" vertex="1">
          <mxGeometry x="2010" y="-5" width="60" height="30" as="geometry" />
        </mxCell>
        <mxCell id="wYVHhfULaMG1dtSvO_S3-157" value="(1, 1)" style="text;html=1;align=center;verticalAlign=middle;whiteSpace=wrap;rounded=0;" parent="1" vertex="1">
          <mxGeometry x="2610" y="-5" width="60" height="30" as="geometry" />
        </mxCell>
        <mxCell id="wYVHhfULaMG1dtSvO_S3-158" value="(0, 1)" style="text;html=1;align=center;verticalAlign=middle;whiteSpace=wrap;rounded=0;" parent="1" vertex="1">
          <mxGeometry x="2230" y="-205" width="60" height="30" as="geometry" />
        </mxCell>
        <mxCell id="wYVHhfULaMG1dtSvO_S3-159" value="(0, 1)" style="text;html=1;align=center;verticalAlign=middle;whiteSpace=wrap;rounded=0;" parent="1" vertex="1">
          <mxGeometry x="2310" y="-205" width="60" height="30" as="geometry" />
        </mxCell>
        <mxCell id="wYVHhfULaMG1dtSvO_S3-162" value="" style="endArrow=none;html=1;rounded=0;" parent="1" edge="1">
          <mxGeometry width="50" height="50" relative="1" as="geometry">
            <mxPoint x="2380" y="295" as="sourcePoint" />
            <mxPoint x="2880" y="295.61" as="targetPoint" />
          </mxGeometry>
        </mxCell>
        <mxCell id="wYVHhfULaMG1dtSvO_S3-165" value="" style="endArrow=none;html=1;rounded=0;" parent="1" edge="1">
          <mxGeometry width="50" height="50" relative="1" as="geometry">
            <mxPoint x="2380" y="-215.74" as="sourcePoint" />
            <mxPoint x="2880" y="-215.13" as="targetPoint" />
          </mxGeometry>
        </mxCell>
        <mxCell id="wYVHhfULaMG1dtSvO_S3-166" value="" style="rhombus;whiteSpace=wrap;html=1;" parent="1" vertex="1">
          <mxGeometry x="2860" y="-45" width="40" height="40" as="geometry" />
        </mxCell>
        <mxCell id="wYVHhfULaMG1dtSvO_S3-168" value="" style="endArrow=none;html=1;rounded=0;entryX=0.5;entryY=1;entryDx=0;entryDy=0;exitX=0.5;exitY=0;exitDx=0;exitDy=0;" parent="1" source="wYVHhfULaMG1dtSvO_S3-166" edge="1">
          <mxGeometry width="50" height="50" relative="1" as="geometry">
            <mxPoint x="2879.6" y="-135" as="sourcePoint" />
            <mxPoint x="2879.6" y="-215" as="targetPoint" />
          </mxGeometry>
        </mxCell>
        <mxCell id="wYVHhfULaMG1dtSvO_S3-169" value="" style="endArrow=none;html=1;rounded=0;" parent="1" edge="1">
          <mxGeometry width="50" height="50" relative="1" as="geometry">
            <mxPoint x="2380" y="324.26" as="sourcePoint" />
            <mxPoint x="3080" y="325" as="targetPoint" />
          </mxGeometry>
        </mxCell>
        <mxCell id="wYVHhfULaMG1dtSvO_S3-170" value="" style="endArrow=none;html=1;rounded=0;entryX=0.5;entryY=1;entryDx=0;entryDy=0;" parent="1" target="wYVHhfULaMG1dtSvO_S3-166" edge="1">
          <mxGeometry width="50" height="50" relative="1" as="geometry">
            <mxPoint x="2880" y="295" as="sourcePoint" />
            <mxPoint x="2800" y="125" as="targetPoint" />
          </mxGeometry>
        </mxCell>
        <mxCell id="wYVHhfULaMG1dtSvO_S3-171" value="è disponibile presso" style="text;html=1;align=center;verticalAlign=middle;whiteSpace=wrap;rounded=0;" parent="1" vertex="1">
          <mxGeometry x="2785" width="85" height="30" as="geometry" />
        </mxCell>
        <mxCell id="wYVHhfULaMG1dtSvO_S3-172" value="può fornire" style="text;html=1;align=center;verticalAlign=middle;whiteSpace=wrap;rounded=0;" parent="1" vertex="1">
          <mxGeometry x="2800" y="-75" width="60" height="30" as="geometry" />
        </mxCell>
        <mxCell id="wYVHhfULaMG1dtSvO_S3-173" value="(0, N)" style="text;html=1;align=center;verticalAlign=middle;whiteSpace=wrap;rounded=0;" parent="1" vertex="1">
          <mxGeometry x="2365" y="270" width="60" height="30" as="geometry" />
        </mxCell>
        <mxCell id="wYVHhfULaMG1dtSvO_S3-174" value="(0, N)" style="text;html=1;align=center;verticalAlign=middle;whiteSpace=wrap;rounded=0;" parent="1" vertex="1">
          <mxGeometry x="2370" y="-215" width="60" height="30" as="geometry" />
        </mxCell>
        <mxCell id="wYVHhfULaMG1dtSvO_S3-175" value="" style="endArrow=none;html=1;rounded=0;" parent="1" edge="1">
          <mxGeometry width="50" height="50" relative="1" as="geometry">
            <mxPoint x="2890" y="-15" as="sourcePoint" />
            <mxPoint x="2920" y="-5" as="targetPoint" />
          </mxGeometry>
        </mxCell>
        <mxCell id="wYVHhfULaMG1dtSvO_S3-177" value="quantità" style="text;html=1;align=center;verticalAlign=middle;whiteSpace=wrap;rounded=0;" parent="1" vertex="1">
          <mxGeometry x="2920" y="-15" width="60" height="30" as="geometry" />
        </mxCell>
        <mxCell id="wYVHhfULaMG1dtSvO_S3-178" value="" style="rhombus;whiteSpace=wrap;html=1;" parent="1" vertex="1">
          <mxGeometry x="3060" y="-45" width="40" height="40" as="geometry" />
        </mxCell>
        <mxCell id="wYVHhfULaMG1dtSvO_S3-179" value="" style="endArrow=none;html=1;rounded=0;entryX=0.5;entryY=1;entryDx=0;entryDy=0;" parent="1" target="wYVHhfULaMG1dtSvO_S3-178" edge="1">
          <mxGeometry width="50" height="50" relative="1" as="geometry">
            <mxPoint x="3079.58" y="325" as="sourcePoint" />
            <mxPoint x="3079.58" y="25" as="targetPoint" />
          </mxGeometry>
        </mxCell>
        <mxCell id="wYVHhfULaMG1dtSvO_S3-180" value="" style="endArrow=none;html=1;rounded=0;entryX=0.5;entryY=1;entryDx=0;entryDy=0;" parent="1" edge="1">
          <mxGeometry width="50" height="50" relative="1" as="geometry">
            <mxPoint x="3079.79" y="-45" as="sourcePoint" />
            <mxPoint x="3080.21" y="-375" as="targetPoint" />
          </mxGeometry>
        </mxCell>
        <mxCell id="wYVHhfULaMG1dtSvO_S3-182" value="" style="endArrow=none;html=1;rounded=0;" parent="1" edge="1">
          <mxGeometry width="50" height="50" relative="1" as="geometry">
            <mxPoint x="2300" y="-375" as="sourcePoint" />
            <mxPoint x="3080" y="-374.26" as="targetPoint" />
          </mxGeometry>
        </mxCell>
        <mxCell id="wYVHhfULaMG1dtSvO_S3-183" value="" style="endArrow=none;html=1;rounded=0;" parent="1" edge="1">
          <mxGeometry width="50" height="50" relative="1" as="geometry">
            <mxPoint x="2300" y="-265" as="sourcePoint" />
            <mxPoint x="2300" y="-375" as="targetPoint" />
          </mxGeometry>
        </mxCell>
        <mxCell id="wYVHhfULaMG1dtSvO_S3-184" value="è disponibile presso" style="text;html=1;align=center;verticalAlign=middle;whiteSpace=wrap;rounded=0;" parent="1" vertex="1">
          <mxGeometry x="2990" width="85" height="30" as="geometry" />
        </mxCell>
        <mxCell id="wYVHhfULaMG1dtSvO_S3-185" value="può fornire" style="text;html=1;align=center;verticalAlign=middle;whiteSpace=wrap;rounded=0;" parent="1" vertex="1">
          <mxGeometry x="3000" y="-75" width="60" height="30" as="geometry" />
        </mxCell>
        <mxCell id="wYVHhfULaMG1dtSvO_S3-186" value="" style="endArrow=none;html=1;rounded=0;" parent="1" edge="1">
          <mxGeometry width="50" height="50" relative="1" as="geometry">
            <mxPoint x="3090" y="-15" as="sourcePoint" />
            <mxPoint x="3120" y="-5" as="targetPoint" />
          </mxGeometry>
        </mxCell>
        <mxCell id="wYVHhfULaMG1dtSvO_S3-187" value="prezzo" style="text;html=1;align=center;verticalAlign=middle;whiteSpace=wrap;rounded=0;" parent="1" vertex="1">
          <mxGeometry x="3120" y="-15" width="60" height="30" as="geometry" />
        </mxCell>
        <mxCell id="wYVHhfULaMG1dtSvO_S3-188" value="(0, N)" style="text;html=1;align=center;verticalAlign=middle;whiteSpace=wrap;rounded=0;" parent="1" vertex="1">
          <mxGeometry x="2365" y="320" width="60" height="30" as="geometry" />
        </mxCell>
        <mxCell id="wYVHhfULaMG1dtSvO_S3-189" value="(0, N)" style="text;html=1;align=center;verticalAlign=middle;whiteSpace=wrap;rounded=0;" parent="1" vertex="1">
          <mxGeometry x="2290" y="-295" width="60" height="30" as="geometry" />
        </mxCell>
        <mxCell id="y-peP4HQi6UACv_94nHk-2" value="" style="endArrow=none;html=1;rounded=0;" edge="1" parent="1">
          <mxGeometry width="50" height="50" relative="1" as="geometry">
            <mxPoint x="1480" y="275" as="sourcePoint" />
            <mxPoint x="1490" y="265" as="targetPoint" />
          </mxGeometry>
        </mxCell>
        <mxCell id="y-peP4HQi6UACv_94nHk-4" value="" style="ellipse;whiteSpace=wrap;html=1;aspect=fixed;fillColor=#000000;" vertex="1" parent="1">
          <mxGeometry x="1490" y="255" width="10" height="10" as="geometry" />
        </mxCell>
        <mxCell id="y-peP4HQi6UACv_94nHk-5" value="Login" style="text;html=1;align=center;verticalAlign=middle;whiteSpace=wrap;rounded=0;" vertex="1" parent="1">
          <mxGeometry x="1470" y="245" width="100" height="30" as="geometry" />
        </mxCell>
        <mxCell id="y-peP4HQi6UACv_94nHk-6" value="" style="endArrow=none;html=1;rounded=0;" edge="1" parent="1">
          <mxGeometry width="50" height="50" relative="1" as="geometry">
            <mxPoint x="1480" y="315" as="sourcePoint" />
            <mxPoint x="1500" y="305" as="targetPoint" />
          </mxGeometry>
        </mxCell>
        <mxCell id="y-peP4HQi6UACv_94nHk-7" value="Password" style="text;html=1;align=center;verticalAlign=middle;whiteSpace=wrap;rounded=0;" vertex="1" parent="1">
          <mxGeometry x="1500" y="290" width="60" height="30" as="geometry" />
        </mxCell>
        <mxCell id="y-peP4HQi6UACv_94nHk-11" value="" style="endArrow=none;html=1;rounded=0;" edge="1" parent="1">
          <mxGeometry width="50" height="50" relative="1" as="geometry">
            <mxPoint x="1890" y="675" as="sourcePoint" />
            <mxPoint x="1890" y="595" as="targetPoint" />
          </mxGeometry>
        </mxCell>
        <mxCell id="y-peP4HQi6UACv_94nHk-12" value="" style="endArrow=none;html=1;rounded=0;" edge="1" parent="1">
          <mxGeometry width="50" height="50" relative="1" as="geometry">
            <mxPoint x="1440" y="675" as="sourcePoint" />
            <mxPoint x="1890" y="674.76" as="targetPoint" />
          </mxGeometry>
        </mxCell>
        <mxCell id="y-peP4HQi6UACv_94nHk-16" value="" style="endArrow=none;html=1;rounded=0;" edge="1" parent="1" target="y-peP4HQi6UACv_94nHk-15">
          <mxGeometry width="50" height="50" relative="1" as="geometry">
            <mxPoint x="1440" y="675" as="sourcePoint" />
            <mxPoint x="1440" y="590" as="targetPoint" />
          </mxGeometry>
        </mxCell>
        <mxCell id="y-peP4HQi6UACv_94nHk-15" value="" style="rhombus;whiteSpace=wrap;html=1;" vertex="1" parent="1">
          <mxGeometry x="1400" y="655" width="40" height="40" as="geometry" />
        </mxCell>
        <mxCell id="y-peP4HQi6UACv_94nHk-17" value="HA" style="text;html=1;align=center;verticalAlign=middle;whiteSpace=wrap;rounded=0;" vertex="1" parent="1">
          <mxGeometry x="1390" y="695" width="60" height="30" as="geometry" />
        </mxCell>
        <mxCell id="y-peP4HQi6UACv_94nHk-18" value="(1, 1)" style="text;html=1;align=center;verticalAlign=middle;whiteSpace=wrap;rounded=0;" vertex="1" parent="1">
          <mxGeometry x="1840" y="595" width="60" height="30" as="geometry" />
        </mxCell>
        <mxCell id="y-peP4HQi6UACv_94nHk-19" value="(0, 1)" style="text;html=1;align=center;verticalAlign=middle;whiteSpace=wrap;rounded=0;" vertex="1" parent="1">
          <mxGeometry x="1410" y="335" width="60" height="30" as="geometry" />
        </mxCell>
        <mxCell id="y-peP4HQi6UACv_94nHk-21" value="Manager" style="rounded=0;whiteSpace=wrap;html=1;" vertex="1" parent="1">
          <mxGeometry x="1360" y="20" width="120" height="60" as="geometry" />
        </mxCell>
        <mxCell id="y-peP4HQi6UACv_94nHk-22" value="" style="endArrow=none;html=1;rounded=0;" edge="1" parent="1">
          <mxGeometry width="50" height="50" relative="1" as="geometry">
            <mxPoint x="1480" y="49.46999999999999" as="sourcePoint" />
            <mxPoint x="1700" y="49.46999999999999" as="targetPoint" />
          </mxGeometry>
        </mxCell>
        <mxCell id="y-peP4HQi6UACv_94nHk-20" value="" style="rhombus;whiteSpace=wrap;html=1;" vertex="1" parent="1">
          <mxGeometry x="1690" y="30" width="40" height="40" as="geometry" />
        </mxCell>
        <mxCell id="y-peP4HQi6UACv_94nHk-23" value="ha manager" style="text;html=1;align=center;verticalAlign=middle;whiteSpace=wrap;rounded=0;rotation=90;" vertex="1" parent="1">
          <mxGeometry x="1705" y="-20" width="70" height="30" as="geometry" />
        </mxCell>
        <mxCell id="y-peP4HQi6UACv_94nHk-24" value="è manager di" style="text;html=1;align=center;verticalAlign=middle;whiteSpace=wrap;rounded=0;rotation=90;" vertex="1" parent="1">
          <mxGeometry x="1635" y="-25" width="80" height="30" as="geometry" />
        </mxCell>
        <mxCell id="y-peP4HQi6UACv_94nHk-25" value="(0, N)" style="text;html=1;align=center;verticalAlign=middle;whiteSpace=wrap;rounded=0;" vertex="1" parent="1">
          <mxGeometry x="1470" y="25" width="60" height="30" as="geometry" />
        </mxCell>
        <mxCell id="y-peP4HQi6UACv_94nHk-26" value="(1, 1)" style="text;html=1;align=center;verticalAlign=middle;whiteSpace=wrap;rounded=0;" vertex="1" parent="1">
          <mxGeometry x="1860" y="25" width="60" height="30" as="geometry" />
        </mxCell>
        <mxCell id="y-peP4HQi6UACv_94nHk-1" value="Utenza" style="rounded=0;whiteSpace=wrap;html=1;direction=east;" vertex="1" parent="1">
          <mxGeometry x="1360" y="275" width="120" height="60" as="geometry" />
        </mxCell>
        <mxCell id="y-peP4HQi6UACv_94nHk-27" value="" style="rhombus;whiteSpace=wrap;html=1;" vertex="1" parent="1">
          <mxGeometry x="1400" y="160" width="40" height="40" as="geometry" />
        </mxCell>
        <mxCell id="y-peP4HQi6UACv_94nHk-29" value="" style="endArrow=none;html=1;rounded=0;entryX=0.5;entryY=1;entryDx=0;entryDy=0;" edge="1" parent="1">
          <mxGeometry width="50" height="50" relative="1" as="geometry">
            <mxPoint x="1420" y="160" as="sourcePoint" />
            <mxPoint x="1420.06" y="80" as="targetPoint" />
          </mxGeometry>
        </mxCell>
        <mxCell id="y-peP4HQi6UACv_94nHk-30" value="" style="endArrow=none;html=1;rounded=0;" edge="1" parent="1">
          <mxGeometry width="50" height="50" relative="1" as="geometry">
            <mxPoint x="1419.8" y="275" as="sourcePoint" />
            <mxPoint x="1420" y="200" as="targetPoint" />
          </mxGeometry>
        </mxCell>
        <mxCell id="y-peP4HQi6UACv_94nHk-31" value="HA" style="text;html=1;align=center;verticalAlign=middle;whiteSpace=wrap;rounded=0;" vertex="1" parent="1">
          <mxGeometry x="1430" y="165" width="60" height="30" as="geometry" />
        </mxCell>
        <mxCell id="y-peP4HQi6UACv_94nHk-32" value="(0, 1)" style="text;html=1;align=center;verticalAlign=middle;whiteSpace=wrap;rounded=0;" vertex="1" parent="1">
          <mxGeometry x="1410" y="250" width="60" height="30" as="geometry" />
        </mxCell>
        <mxCell id="y-peP4HQi6UACv_94nHk-33" value="(1, 1)" style="text;html=1;align=center;verticalAlign=middle;whiteSpace=wrap;rounded=0;" vertex="1" parent="1">
          <mxGeometry x="1410" y="75" width="60" height="30" as="geometry" />
        </mxCell>
        <mxCell id="y-peP4HQi6UACv_94nHk-35" value="" style="endArrow=none;html=1;rounded=0;entryX=0.5;entryY=1;entryDx=0;entryDy=0;exitX=0.5;exitY=0;exitDx=0;exitDy=0;" edge="1" parent="1" source="y-peP4HQi6UACv_94nHk-15" target="y-peP4HQi6UACv_94nHk-1">
          <mxGeometry width="50" height="50" relative="1" as="geometry">
            <mxPoint x="1419.6" y="603" as="sourcePoint" />
            <mxPoint x="1419.6" y="498" as="targetPoint" />
          </mxGeometry>
        </mxCell>
        <mxCell id="y-peP4HQi6UACv_94nHk-38" value="Responsabile" style="text;html=1;align=center;verticalAlign=middle;whiteSpace=wrap;rounded=0;" vertex="1" parent="1">
          <mxGeometry x="1870" y="-45" width="60" height="30" as="geometry" />
        </mxCell>
        <mxCell id="y-peP4HQi6UACv_94nHk-39" value="" style="endArrow=none;html=1;rounded=0;" edge="1" parent="1">
          <mxGeometry width="50" height="50" relative="1" as="geometry">
            <mxPoint x="1950" y="40" as="sourcePoint" />
            <mxPoint x="1910" as="targetPoint" />
          </mxGeometry>
        </mxCell>
        <mxCell id="y-peP4HQi6UACv_94nHk-40" value="" style="endArrow=none;html=1;rounded=0;" edge="1" parent="1">
          <mxGeometry width="50" height="50" relative="1" as="geometry">
            <mxPoint x="1950" y="70" as="sourcePoint" />
            <mxPoint x="1910" y="110" as="targetPoint" />
          </mxGeometry>
        </mxCell>
        <mxCell id="y-peP4HQi6UACv_94nHk-41" value="" style="endArrow=none;html=1;rounded=0;" edge="1" parent="1">
          <mxGeometry width="50" height="50" relative="1" as="geometry">
            <mxPoint x="1970" y="20" as="sourcePoint" />
            <mxPoint x="1930" y="-20" as="targetPoint" />
          </mxGeometry>
        </mxCell>
        <mxCell id="y-peP4HQi6UACv_94nHk-43" value="" style="endArrow=none;html=1;rounded=0;" edge="1" parent="1">
          <mxGeometry width="50" height="50" relative="1" as="geometry">
            <mxPoint x="2580" y="20" as="sourcePoint" />
            <mxPoint x="2580" y="-30" as="targetPoint" />
          </mxGeometry>
        </mxCell>
        <mxCell id="y-peP4HQi6UACv_94nHk-45" value="" style="endArrow=none;html=1;rounded=0;" edge="1" parent="1">
          <mxGeometry width="50" height="50" relative="1" as="geometry">
            <mxPoint x="2660" y="-30" as="sourcePoint" />
            <mxPoint x="2580" y="-30" as="targetPoint" />
          </mxGeometry>
        </mxCell>
        <mxCell id="y-peP4HQi6UACv_94nHk-47" value="" style="ellipse;whiteSpace=wrap;html=1;aspect=fixed;fillColor=#000000;" vertex="1" parent="1">
          <mxGeometry x="2660" y="-35" width="10" height="10" as="geometry" />
        </mxCell>
        <mxCell id="y-peP4HQi6UACv_94nHk-48" value="" style="endArrow=none;html=1;rounded=0;" edge="1" parent="1">
          <mxGeometry width="50" height="50" relative="1" as="geometry">
            <mxPoint x="2060" y="20" as="sourcePoint" />
            <mxPoint x="2060" y="-30" as="targetPoint" />
          </mxGeometry>
        </mxCell>
        <mxCell id="y-peP4HQi6UACv_94nHk-49" value="" style="endArrow=none;html=1;rounded=0;" edge="1" parent="1">
          <mxGeometry width="50" height="50" relative="1" as="geometry">
            <mxPoint x="2060" y="-30.259999999999998" as="sourcePoint" />
            <mxPoint x="1980" y="-30.259999999999998" as="targetPoint" />
          </mxGeometry>
        </mxCell>
        <mxCell id="y-peP4HQi6UACv_94nHk-50" value="" style="ellipse;whiteSpace=wrap;html=1;aspect=fixed;fillColor=#000000;" vertex="1" parent="1">
          <mxGeometry x="1970" y="-35" width="10" height="10" as="geometry" />
        </mxCell>
        <mxCell id="y-peP4HQi6UACv_94nHk-52" value="" style="endArrow=none;html=1;rounded=0;" edge="1" parent="1">
          <mxGeometry width="50" height="50" relative="1" as="geometry">
            <mxPoint x="1480" y="20" as="sourcePoint" />
            <mxPoint x="1490" y="10" as="targetPoint" />
          </mxGeometry>
        </mxCell>
        <mxCell id="y-peP4HQi6UACv_94nHk-53" value="" style="ellipse;whiteSpace=wrap;html=1;aspect=fixed;fillColor=#000000;" vertex="1" parent="1">
          <mxGeometry x="1490" width="10" height="10" as="geometry" />
        </mxCell>
        <mxCell id="y-peP4HQi6UACv_94nHk-54" value="ID" style="text;html=1;align=center;verticalAlign=middle;whiteSpace=wrap;rounded=0;fontStyle=1" vertex="1" parent="1">
          <mxGeometry x="1480" y="-10" width="60" height="30" as="geometry" />
        </mxCell>
        <mxCell id="y-peP4HQi6UACv_94nHk-56" value="" style="endArrow=none;html=1;rounded=0;" edge="1" parent="1">
          <mxGeometry width="50" height="50" relative="1" as="geometry">
            <mxPoint x="1380" y="20" as="sourcePoint" />
            <mxPoint x="1340" y="-20" as="targetPoint" />
          </mxGeometry>
        </mxCell>
        <mxCell id="y-peP4HQi6UACv_94nHk-57" value="Nome" style="text;html=1;align=center;verticalAlign=middle;whiteSpace=wrap;rounded=0;" vertex="1" parent="1">
          <mxGeometry x="1300" y="-45" width="60" height="30" as="geometry" />
        </mxCell>
      </root>
    </mxGraphModel>
  </diagram>
</mxfile>
